<svg width="100" height="24" viewBox="0 0 100 24" fill="none" xmlns="http://www.w3.org/2000/svg">
<path d="M11.8082 13.1029C5.62025 13.1029 1.59025 10.6329 1.59025 6.88893C1.59025 3.14493 5.62025 0.674929 11.8082 0.674929C17.9962 0.674929 22.0262 3.14493 22.0262 6.88893C22.0262 10.6329 17.9962 13.1029 11.8082 13.1029ZM11.8082 4.60093C8.63625 4.60093 6.21825 5.38093 6.21825 6.88893C6.21825 8.37093 8.63625 9.17693 11.8082 9.17693C14.9802 9.17693 17.3982 8.37093 17.3982 6.88893C17.3982 5.38093 14.9802 4.60093 11.8082 4.60093ZM23.0402 14.4289V18.4849H14.0702V23.4769H9.54625V18.4849H0.576246V14.4289H23.0402ZM36.688 7.92893C34.088 10.9189 30.24 12.7909 26.106 12.7649V8.63093C30.448 8.63093 34.66 5.30293 35.362 0.414929L39.834 1.06493C39.652 2.31293 39.288 3.48293 38.794 4.60093L47.972 9.09893L45.918 12.7909L36.688 7.92893ZM48.05 14.4289V18.4849H39.08V23.4769H34.556V18.4849H25.586V14.4289H48.05ZM68.5878 0.752928H72.6958V22.9569H68.5878V0.752928ZM62.9978 8.65693V0.856928H67.0538V22.5669H62.9978V19.7589L59.7218 21.5789L56.8618 16.3789C55.5618 19.9409 53.4558 21.8129 50.5958 21.9169V17.6269C52.8318 17.3149 54.2098 12.6609 54.2878 5.25093H51.0378V1.27293H61.5678V5.25093H58.4478C58.4218 7.22693 58.3178 9.04693 58.1358 10.6849L62.9978 19.1089V12.7909H60.1638V8.65693H62.9978ZM96.4575 5.17293H99.0575V9.43693H96.4575V17.1849H92.0635V0.752928H96.4575V5.17293ZM89.6975 7.43493C89.6975 11.4649 86.7855 14.0909 82.4955 14.0909C78.2055 14.0909 75.2935 11.4649 75.2935 7.43493C75.2935 3.43093 78.2055 0.778929 82.4955 0.778929C86.7855 0.778929 89.6975 3.43093 89.6975 7.43493ZM79.6615 7.43493C79.6615 9.35893 80.8315 10.4249 82.4955 10.4249C84.1595 10.4249 85.3295 9.35893 85.3295 7.43493C85.3295 5.51093 84.1595 4.44493 82.4955 4.44493C80.8315 4.44493 79.6615 5.51093 79.6615 7.43493ZM81.5855 15.1829V19.0049H96.7695V22.9569H77.1135V15.1829H81.5855Z" fill="url(#paint0_linear_1138_5197)"/>
<defs>
<linearGradient id="paint0_linear_1138_5197" x1="-0.697754" y1="-0.74707" x2="100.271" y2="25.374" gradientUnits="userSpaceOnUse">
<stop stop-color="#FDFDFD"/>
<stop offset="0.559027" stop-color="#67DCFF"/>
<stop offset="1" stop-color="#D27EFF"/>
</linearGradient>
</defs>
</svg>
