<svg width="97" height="24" viewBox="0 0 97 24" fill="none" xmlns="http://www.w3.org/2000/svg">
<path d="M17.512 12.9729V11.4389H14.08V7.69493H17.512V6.23893H14.938V2.49493H17.512V0.752928H21.854V12.9729H17.512ZM13.898 4.02893C13.898 10.1389 8.36 12.6609 0.794 12.6609V8.94293C5.994 8.89093 9.426 7.35693 9.426 4.99093V4.65293H0.794V1.01293H13.898V4.02893ZM11.922 13.2849C17.59 13.2849 22.062 14.5589 22.062 18.2509C22.062 21.9429 17.59 23.2169 11.922 23.2169C6.254 23.2169 1.782 21.9429 1.782 18.2509C1.782 14.5589 6.254 13.2849 11.922 13.2849ZM11.922 19.7069C14.912 19.7069 17.33 19.3169 17.33 18.2509C17.33 17.2109 14.912 16.7949 11.922 16.7949C8.932 16.7949 6.514 17.2109 6.514 18.2509C6.514 19.3169 8.932 19.7069 11.922 19.7069ZM46.7598 0.752928V17.1849H42.3658V0.752928H46.7598ZM33.4478 10.1649C31.7058 12.4529 29.0278 14.0909 25.8038 14.1689V10.1909C28.8198 9.95693 30.7438 7.46093 31.1338 4.75693H26.1158V1.01293H40.4678V4.75693H35.5798C35.5278 5.40693 35.3978 6.05693 35.2158 6.70693L41.4038 10.8409L38.9858 13.9869L33.4478 10.1649ZM31.3678 19.0049H47.0718V22.9569H26.8958V15.1829H31.3678V19.0049ZM68.2855 0.752928H72.3935V22.9569H68.2855V13.0769H66.4395V22.5669H62.3835V0.856928H66.4395V8.91693H68.2855V0.752928ZM54.9215 18.0689H56.1695C57.9115 18.0689 59.9915 17.8089 61.3435 17.3149V21.1109C60.0175 21.6569 57.6515 21.9169 55.7795 21.9169H50.6835V1.27293H60.3815V5.12093H54.9215V18.0689ZM90.5653 2.67693V6.42093H75.3813V2.67693H80.6853V0.596929H85.2093V2.67693H90.5653ZM92.4373 0.752928H96.8313V22.9569H92.4373V0.752928ZM85.1573 18.0429H85.4173C87.4713 18.0429 89.7853 17.7829 91.1633 17.1589V21.0329C89.7853 21.6569 87.5493 21.9169 85.3393 21.9169H75.3033V18.0429H80.7633V16.1709C78.0333 15.6509 76.2133 14.1429 76.2133 11.7249C76.2133 8.70893 79.0733 7.09693 82.9993 7.09693C86.9253 7.09693 89.7853 8.70893 89.7853 11.7249C89.7853 14.1689 87.9393 15.6769 85.1573 16.1709V18.0429ZM80.3213 11.7249C80.3213 12.5049 81.4133 12.8949 82.9993 12.8949C84.5853 12.8949 85.6773 12.5049 85.6773 11.7249C85.6773 10.9449 84.5853 10.5549 82.9993 10.5549C81.4133 10.5549 80.3213 10.9449 80.3213 11.7249Z" fill="url(#paint0_linear_1138_5199)"/>
<defs>
<linearGradient id="paint0_linear_1138_5199" x1="-1" y1="-0.74707" x2="99.9687" y2="25.374" gradientUnits="userSpaceOnUse">
<stop stop-color="#FDFDFD"/>
<stop offset="0.559027" stop-color="#67DCFF"/>
<stop offset="1" stop-color="#D27EFF"/>
</linearGradient>
</defs>
</svg>
