<svg width="99" height="23" viewBox="0 0 99 23" fill="none" xmlns="http://www.w3.org/2000/svg">
<path d="M18.266 0.752928H22.374V22.9569H18.266V0.752928ZM12.676 9.28093V0.856928H16.732V22.5669H12.676V13.4149H10.7V9.28093H12.676ZM4.798 18.1729H6.41C8.152 18.1729 10.232 17.9389 11.584 17.4449V21.1369C10.258 21.6829 7.866 21.9169 6.02 21.9169H0.664V1.27293H10.492V5.01693H4.798V9.61893H9.582V13.3629H4.798V18.1729ZM48.7358 8.86493V13.1289H46.1358V22.9569H41.7418V0.752928H46.1358V8.86493H48.7358ZM26.0378 21.9169V1.27293H38.9598V21.9169H26.0378ZM30.4318 5.35493V17.8349H34.5658V5.35493H30.4318ZM68.2855 0.752928H72.3935V22.9569H68.2855V0.752928ZM62.6955 8.65693V0.856928H66.7515V22.5669H62.6955V19.7589L59.4195 21.5789L56.5595 16.3789C55.2595 19.9409 53.1535 21.8129 50.2935 21.9169V17.6269C52.5295 17.3149 53.9075 12.6609 53.9855 5.25093H50.7355V1.27293H61.2655V5.25093H58.1455C58.1195 7.22693 58.0155 9.04693 57.8335 10.6849L62.6955 19.1089V12.7909H59.8615V8.65693H62.6955ZM96.1553 5.17293H98.7553V9.43693H96.1553V17.1849H91.7613V0.752928H96.1553V5.17293ZM89.3953 7.43493C89.3953 11.4649 86.4833 14.0909 82.1933 14.0909C77.9033 14.0909 74.9913 11.4649 74.9913 7.43493C74.9913 3.43093 77.9033 0.778929 82.1933 0.778929C86.4833 0.778929 89.3953 3.43093 89.3953 7.43493ZM79.3593 7.43493C79.3593 9.35893 80.5293 10.4249 82.1933 10.4249C83.8573 10.4249 85.0273 9.35893 85.0273 7.43493C85.0273 5.51093 83.8573 4.44493 82.1933 4.44493C80.5293 4.44493 79.3593 5.51093 79.3593 7.43493ZM81.2833 15.1829V19.0049H96.4673V22.9569H76.8113V15.1829H81.2833Z" fill="url(#paint0_linear_1138_5201)"/>
<defs>
<linearGradient id="paint0_linear_1138_5201" x1="-1" y1="-0.74707" x2="99.9687" y2="25.374" gradientUnits="userSpaceOnUse">
<stop stop-color="#FDFDFD"/>
<stop offset="0.559027" stop-color="#67DCFF"/>
<stop offset="1" stop-color="#D27EFF"/>
</linearGradient>
</defs>
</svg>
