<svg width="74" height="23" viewBox="0 0 74 23" fill="none" xmlns="http://www.w3.org/2000/svg">
<path d="M21.6882 0.499998V10.354H1.92825V0.499998H6.21825V2.164H17.3982V0.499998H21.6882ZM6.21825 7.052H17.3982V5.388H6.21825V7.052ZM0.576246 11.628H23.0402V15.216H14.0182V17.868H9.59825V15.216H0.576246V11.628ZM6.34825 16.464V19.09H22.0002V22.704H1.87625V16.464H6.34825ZM47.062 0.499998V12.512H42.668V0.499998H47.062ZM32.84 0.526C37.156 0.526 40.068 2.866 40.068 6.376C40.068 9.912 37.156 12.226 32.84 12.226C28.524 12.226 25.612 9.912 25.612 6.376C25.612 2.866 28.524 0.526 32.84 0.526ZM32.84 4.088C31.124 4.088 29.98 4.972 29.98 6.376C29.98 7.78 31.124 8.664 32.84 8.664C34.556 8.664 35.7 7.78 35.7 6.376C35.7 4.972 34.556 4.088 32.84 4.088ZM47.062 13.292V22.704H27.458V13.292H47.062ZM31.852 19.09H42.668V16.906H31.852V19.09ZM61.7498 9.938C59.2278 12.642 55.4318 14.306 51.3498 14.332V10.302C54.9898 10.224 58.4218 8.274 59.6698 5.024H51.7398V1.02H71.9158V5.024H64.4278C64.2978 5.57 64.1158 6.064 63.9078 6.584L72.8518 10.978L70.8498 14.514L61.7498 9.938ZM64.0378 17.816H73.0598V21.924H50.5958V17.816H59.6178V13.474H64.0378V17.816Z" fill="url(#paint0_linear_1138_5198)"/>
<defs>
<linearGradient id="paint0_linear_1138_5198" x1="-0.697754" y1="-1" x2="77.4039" y2="14.204" gradientUnits="userSpaceOnUse">
<stop stop-color="#FDFDFD"/>
<stop offset="0.559027" stop-color="#67DCFF"/>
<stop offset="1" stop-color="#D27EFF"/>
</linearGradient>
</defs>
</svg>
