<svg width="148" height="24" viewBox="0 0 148 24" fill="none" xmlns="http://www.w3.org/2000/svg">
<path d="M23.726 8.612V12.876H21.126V22.704H16.732V0.499998H21.126V8.612H23.726ZM10.7 1.098C10.7 4.452 10.388 7.468 9.842 10.068L16.264 19.116L12.676 21.638L8.256 15.164C6.436 19.324 3.654 21.638 0.274 21.664V17.14C3.836 16.724 6.202 10.224 6.228 0.941999L10.7 1.098ZM43.6138 10.198H47.7478V13.526H25.2838V10.198H29.4178V8.144C27.5198 7.416 26.3758 6.272 26.3758 4.634C26.3758 1.436 30.6658 0.135998 36.5158 0.135998C42.3658 0.135998 46.6558 1.436 46.6558 4.634C46.6558 6.272 45.5118 7.416 43.6138 8.144V10.198ZM36.5158 3.412C33.1878 3.412 31.0558 3.802 31.0558 4.634C31.0558 5.492 33.1878 5.856 36.5158 5.856C39.8438 5.856 41.9758 5.492 41.9758 4.634C41.9758 3.802 39.8438 3.412 36.5158 3.412ZM33.7598 9.028V10.198H39.2718V9.028C38.4138 9.106 37.4778 9.132 36.5158 9.132C35.5538 9.132 34.6178 9.106 33.7598 9.028ZM36.5158 14.28C42.4958 14.28 46.6558 15.424 46.6558 18.622C46.6558 21.82 42.4958 22.964 36.5158 22.964C30.5358 22.964 26.3758 21.82 26.3758 18.622C26.3758 15.424 30.5358 14.28 36.5158 14.28ZM36.5158 19.688C39.7398 19.688 41.9758 19.428 41.9758 18.622C41.9758 17.842 39.7398 17.556 36.5158 17.556C33.2918 17.556 31.0558 17.842 31.0558 18.622C31.0558 19.428 33.2918 19.688 36.5158 19.688ZM73.7455 8.612V12.876H71.1455V22.704H66.7515V0.499998H71.1455V8.612H73.7455ZM60.4075 5.05C60.3555 7.052 60.1735 8.924 59.8615 10.614L66.2055 18.986L62.7215 21.56L58.3535 15.554C56.5595 19.428 53.7775 21.638 50.4495 21.664V17.244C53.6995 16.88 55.8315 12.174 55.9875 5.05H51.0735V1.02H65.0615V5.05H60.4075ZM93.2953 0.499998H97.4033V22.704H93.2953V12.824H91.4493V22.314H87.3933V0.603999H91.4493V8.664H93.2953V0.499998ZM75.6933 21.664V1.02H85.7813V21.664H75.6933ZM79.7753 4.998V17.686H81.7253V4.998H79.7753ZM121.607 7.208V11.264H101.613V0.629998H106.111V7.208H121.607ZM122.777 13.162V17.192H118.071V23.224H113.703V17.192H109.387V23.224H105.019V17.192H100.313V13.162H122.777ZM139.129 7.78C138.245 9.938 135.827 11.29 132.421 11.29C128.105 11.29 125.375 9.132 125.375 5.908C125.375 2.71 128.105 0.526 132.421 0.526C135.697 0.526 138.037 1.774 138.999 3.776H142.509V0.499998H146.903V11.368H142.509V7.78H139.129ZM129.717 5.908C129.717 7.078 130.757 7.832 132.421 7.832C134.085 7.832 135.125 7.078 135.125 5.908C135.125 4.738 134.085 3.984 132.421 3.984C130.757 3.984 129.717 4.738 129.717 5.908ZM131.667 19.662H147.137V22.704H127.325V16.074H142.561V15.19H127.273V12.148H146.903V18.778H131.667V19.662Z" fill="url(#paint0_linear_1138_5200)"/>
<defs>
<linearGradient id="paint0_linear_1138_5200" x1="-1" y1="-1" x2="139.098" y2="53.1867" gradientUnits="userSpaceOnUse">
<stop stop-color="#FDFDFD"/>
<stop offset="0.559027" stop-color="#67DCFF"/>
<stop offset="1" stop-color="#D27EFF"/>
</linearGradient>
</defs>
</svg>
