<svg width="260" height="72" viewBox="0 0 260 72" fill="none" xmlns="http://www.w3.org/2000/svg">
<g clip-path="url(#clip0_786_25767)">
<g filter="url(#filter0_d_786_25767)">
<path d="M0 0H260V72H0V0Z" fill="#39BAF2"/>
</g>
<mask id="mask0_786_25767" style="mask-type:alpha" maskUnits="userSpaceOnUse" x="0" y="0" width="260" height="72">
<path d="M0 0H260V72H0V0Z" fill="#233284"/>
</mask>
<g mask="url(#mask0_786_25767)">
<path d="M235.205 -2.86784C232.606 -3.79564 229.938 -4.42314 227.238 -4.74169L197.231 24.6902L136.48 73.6508C137.462 75.5508 138.552 77.3686 139.741 79.0917L198.88 25.2283L235.205 -2.86784ZM249.777 6.24434C248.008 4.55576 246.131 3.03552 244.162 1.69762L200.075 43.0806L145.839 86.3782C147.705 88.2029 149.696 89.8371 151.791 91.2635L198.428 46.4762L249.777 6.24434ZM255.208 12.4159C253.835 10.5642 252.354 8.83021 250.777 7.22676L200.375 53.4429L152.592 91.7976C154.664 93.1381 156.824 94.2746 159.05 95.1959L200.825 55.5831L255.208 12.4159ZM225.245 -4.92705C224.458 -4.97877 223.67 -5.00288 222.882 -4.99933C219.776 -4.99933 216.746 -4.60314 213.824 -3.85696L197.831 13.6185L133.153 65.8564C133.913 68.0808 134.799 70.2405 135.806 72.3204L197.388 15.7641L225.245 -4.92705ZM173.114 -5C149.305 -5 130 18.0515 130 46.5003C129.998 52.3945 130.842 58.2453 132.496 63.7985L196.943 3.57814C190.12 -1.84192 181.925 -5 173.114 -5ZM243.194 1.06119C241.164 -0.230639 239.053 -1.33021 236.879 -2.22739L201.871 31.1208L140.493 80.1657C141.992 82.2382 143.627 84.1648 145.382 85.9271L197.537 36.83L243.194 1.06119ZM198.442 88.9119C205.624 94.8418 214.15 98.0123 222.881 98C246.692 98 266 74.9391 266 46.499C266.005 40.3055 265.074 34.1617 263.249 28.3643L198.442 88.9119ZM262.809 27.0211C261.987 24.6276 261.016 22.3111 259.903 20.0913L202.171 73.442L170.285 97.8889C171.217 97.9545 172.164 97.998 173.115 97.998C175.772 97.998 178.377 97.6968 180.905 97.1507L197.684 79.3339L262.809 27.0211ZM259.495 19.2876C258.418 17.2276 257.223 15.26 255.917 13.399L203.816 61.1189L159.985 95.5573C162.684 96.5912 165.462 97.2996 168.279 97.672L199.63 67.0108L259.495 19.2876Z" fill="white" fill-opacity="0.08"/>
</g>
</g>
<defs>
<filter id="filter0_d_786_25767" x="-8" y="-4" width="276" height="88" filterUnits="userSpaceOnUse" color-interpolation-filters="sRGB">
<feFlood flood-opacity="0" result="BackgroundImageFix"/>
<feColorMatrix in="SourceAlpha" type="matrix" values="0 0 0 0 0 0 0 0 0 0 0 0 0 0 0 0 0 0 127 0" result="hardAlpha"/>
<feOffset dy="4"/>
<feGaussianBlur stdDeviation="4"/>
<feComposite in2="hardAlpha" operator="out"/>
<feColorMatrix type="matrix" values="0 0 0 0 0 0 0 0 0 0 0 0 0 0 0 0 0 0 0.06 0"/>
<feBlend mode="normal" in2="BackgroundImageFix" result="effect1_dropShadow_786_25767"/>
<feBlend mode="normal" in="SourceGraphic" in2="effect1_dropShadow_786_25767" result="shape"/>
</filter>
<clipPath id="clip0_786_25767">
<rect width="260" height="72" fill="white"/>
</clipPath>
</defs>
</svg>
