<svg width="260" height="72" viewBox="0 0 260 72" fill="none" xmlns="http://www.w3.org/2000/svg">
<g clip-path="url(#clip0_786_25767)">
<g filter="url(#filter0_d_786_25767)">
<path d="M0 0H260V72H0V0Z" fill="#EA910A"/>
</g>
<mask id="mask0_786_25767" style="mask-type:alpha" maskUnits="userSpaceOnUse" x="0" y="0" width="260" height="72">
<path d="M0 0H260V72H0V0Z" fill="#233284"/>
</mask>
<g mask="url(#mask0_786_25767)">
<path d="M240.206 -12.9777C236.483 -14.2928 232.662 -15.1823 228.796 -15.6338L185.822 26.0852L98.8186 95.4857C100.225 98.1788 101.786 100.756 103.489 103.198L188.183 26.8479L240.206 -12.9777ZM261.075 -0.0614138C258.541 -2.45494 255.852 -4.60985 253.034 -6.50629L189.895 52.1531L112.223 113.526C114.895 116.113 117.746 118.429 120.746 120.451L187.537 56.9663L261.075 -0.0614138ZM268.852 8.68667C266.885 6.0619 264.765 3.60399 262.506 1.33114L190.324 66.8414L121.894 121.208C124.86 123.108 127.953 124.719 131.141 126.025L190.969 69.875L268.852 8.68667ZM225.942 -15.8966C224.815 -15.9699 223.686 -16.0041 222.558 -15.999C218.109 -15.999 213.77 -15.4375 209.585 -14.3798L186.681 10.3913L94.0534 84.4372C95.1419 87.5903 96.4115 90.6517 97.8534 93.5998L186.047 13.4326L225.942 -15.8966ZM151.284 -16C117.186 -16 89.5386 16.6749 89.5386 57.0005C89.5358 65.3553 90.7451 73.6487 93.1139 81.5202L185.409 -3.84069C175.638 -11.5235 163.902 -16 151.284 -16ZM251.646 -7.40841C248.74 -9.23955 245.716 -10.7982 242.603 -12.0699L192.467 35.2004L104.566 104.72C106.713 107.658 109.054 110.389 111.567 112.887L186.26 43.293L251.646 -7.40841ZM187.557 117.118C197.842 125.523 210.052 130.017 222.555 130C256.657 130 284.308 97.3117 284.308 56.9986C284.316 48.2194 282.981 39.5108 280.368 31.293L187.557 117.118ZM279.738 29.3892C278.56 25.9964 277.17 22.7128 275.577 19.5663L192.897 95.1897L147.232 129.843C148.567 129.935 149.922 129.997 151.285 129.997C155.089 129.997 158.82 129.57 162.441 128.796L186.471 103.541L279.738 29.3892ZM274.992 18.427C273.45 15.5071 271.737 12.7181 269.867 10.0802L195.253 77.7219L132.481 126.538C136.346 128.003 140.325 129.007 144.359 129.535L189.258 86.0735L274.992 18.427Z" fill="#BCBEC0" fill-opacity="0.1"/>
</g>
</g>
<defs>
<filter id="filter0_d_786_25767" x="-8" y="-4" width="276" height="88" filterUnits="userSpaceOnUse" color-interpolation-filters="sRGB">
<feFlood flood-opacity="0" result="BackgroundImageFix"/>
<feColorMatrix in="SourceAlpha" type="matrix" values="0 0 0 0 0 0 0 0 0 0 0 0 0 0 0 0 0 0 127 0" result="hardAlpha"/>
<feOffset dy="4"/>
<feGaussianBlur stdDeviation="4"/>
<feComposite in2="hardAlpha" operator="out"/>
<feColorMatrix type="matrix" values="0 0 0 0 0 0 0 0 0 0 0 0 0 0 0 0 0 0 0.06 0"/>
<feBlend mode="normal" in2="BackgroundImageFix" result="effect1_dropShadow_786_25767"/>
<feBlend mode="normal" in="SourceGraphic" in2="effect1_dropShadow_786_25767" result="shape"/>
</filter>
<clipPath id="clip0_786_25767">
<rect width="260" height="72" fill="white"/>
</clipPath>
</defs>
</svg>
