<svg width="35" height="14" viewBox="0 0 35 14" fill="none" xmlns="http://www.w3.org/2000/svg">
<g clip-path="url(#clip0_681_13366)">
<path d="M33.9489 12.3105L30.737 6.89417L33.9161 1.69871C33.9916 1.57491 34.0328 1.4333 34.0355 1.28838C34.0382 1.14346 34.0023 1.00042 33.9314 0.873916C33.8606 0.747407 33.7573 0.641963 33.6323 0.568371C33.5072 0.494779 33.3648 0.455681 33.2197 0.455078H7.63875C7.20413 0.455078 6.78731 0.627481 6.47998 0.934358C6.17265 1.24124 6 1.65745 6 2.09144V11.9096C6 12.3436 6.17265 12.7598 6.47998 13.0667C6.78731 13.3736 7.20413 13.546 7.63875 13.546H33.2443C33.3889 13.546 33.5309 13.5077 33.656 13.4351C33.781 13.3625 33.8845 13.2582 33.9561 13.1327C34.0277 13.0072 34.0647 12.8651 34.0635 12.7207C34.0622 12.5763 34.0227 12.4348 33.9489 12.3105ZM14.6116 9.60235H13.6939L11.0228 6.05144V9.61053H10.0969V4.54599H11.0228L13.7021 8.10508V4.54599H14.6198L14.6116 9.60235ZM19.7983 5.36417H16.9059V6.58326H19.5279V7.40144H16.9059V8.71872H19.7983V9.5369H15.98V4.54599H19.7901L19.7983 5.36417ZM26.5909 9.58599H25.665L24.395 5.83053L23.125 9.60235H22.2073L20.5685 4.54599H21.5681L22.6497 8.17053L23.8952 4.54599H24.8948L26.0911 8.17053L27.1809 4.54599H28.1887L26.5909 9.58599Z" fill="#FF6262"/>
</g>
<defs>
<clipPath id="clip0_681_13366">
<rect width="35" height="14" fill="white"/>
</clipPath>
</defs>
</svg>
