<svg width="20" height="20" viewBox="0 0 20 20" fill="none" xmlns="http://www.w3.org/2000/svg">
<path d="M18.5154 8.22C18.3994 8.04845 18.2468 7.9088 18.0702 7.81259C17.8936 7.71637 17.6981 7.66636 17.4998 7.66667H16.2498V6.33333C16.2498 5.97971 16.1181 5.64057 15.8837 5.39052C15.6493 5.14048 15.3313 5 14.9998 5H9.58349L7.41711 3.26667C7.20038 3.09432 6.93745 3.00083 6.66712 3H2.49998C2.16847 3 1.85053 3.14048 1.61611 3.39052C1.38169 3.64057 1.25 3.97971 1.25 4.33333V16.3333C1.25 16.5101 1.31585 16.6797 1.43306 16.8047C1.55026 16.9298 1.70923 17 1.87499 17H15.867C15.9982 17 16.126 16.956 16.2325 16.8742C16.3389 16.7924 16.4185 16.6769 16.46 16.5442L18.6857 9.42167C18.7483 9.22125 18.7655 9.00788 18.7359 8.79901C18.7063 8.59014 18.6307 8.39172 18.5154 8.22ZM6.66712 4.33333L8.8335 6.06667C9.05018 6.23912 9.31314 6.33262 9.58349 6.33333H14.9998V7.66667H4.82574C4.56338 7.66665 4.30766 7.75468 4.09482 7.91831C3.88197 8.08193 3.72279 8.31284 3.63981 8.57833L2.49998 12.225V4.33333H6.66712Z" fill="#333333"/>
</svg>
