<svg width="20" height="20" viewBox="0 0 20 20" fill="none" xmlns="http://www.w3.org/2000/svg">
<path d="M17.4038 5.22728H10.2785L7.98077 2.89972C7.85616 2.77262 7.70789 2.67184 7.54455 2.60323C7.3812 2.53461 7.20604 2.49953 7.02921 2.5H2.59615C2.23913 2.5 1.89673 2.64367 1.64428 2.8994C1.39183 3.15514 1.25 3.50198 1.25 3.86364V16.1892C1.25067 16.5368 1.38733 16.8699 1.63004 17.1156C1.87274 17.3613 2.2017 17.4995 2.54483 17.5H17.4787C17.8158 17.4995 18.1388 17.3637 18.3772 17.1223C18.6155 16.8809 18.7496 16.5536 18.75 16.2122V6.59091C18.75 6.22925 18.6082 5.88241 18.3557 5.62668C18.1033 5.37095 17.7609 5.22728 17.4038 5.22728ZM2.59615 3.86364H7.02921L8.37536 5.22728H2.59615V3.86364ZM12.0192 12.0455H10.6731V13.4091C10.6731 13.5899 10.6022 13.7633 10.4759 13.8912C10.3497 14.0191 10.1785 14.0909 10 14.0909C9.82149 14.0909 9.65029 14.0191 9.52406 13.8912C9.39784 13.7633 9.32692 13.5899 9.32692 13.4091V12.0455H7.98077C7.80226 12.0455 7.63106 11.9736 7.50483 11.8458C7.37861 11.7179 7.30769 11.5445 7.30769 11.3636C7.30769 11.1828 7.37861 11.0094 7.50483 10.8815C7.63106 10.7537 7.80226 10.6818 7.98077 10.6818H9.32692V9.31818C9.32692 9.13735 9.39784 8.96393 9.52406 8.83607C9.65029 8.7082 9.82149 8.63637 10 8.63637C10.1785 8.63637 10.3497 8.7082 10.4759 8.83607C10.6022 8.96393 10.6731 9.13735 10.6731 9.31818V10.6818H12.0192C12.1977 10.6818 12.3689 10.7537 12.4952 10.8815C12.6214 11.0094 12.6923 11.1828 12.6923 11.3636C12.6923 11.5445 12.6214 11.7179 12.4952 11.8458C12.3689 11.9736 12.1977 12.0455 12.0192 12.0455Z" fill="#333333"/>
</svg>
