<svg width="24" height="24" viewBox="0 0 24 24" fill="none" xmlns="http://www.w3.org/2000/svg">
<path d="M7.53367 11.4361H9.76839M7.53367 7.86054H10.4388H13.344M7.53367 15.0117H8.8745M4 16.6877V10.1511C4 6.78026 4 5.09438 5.04764 4.04764C6.09438 3 7.78026 3 11.1511 3H12.9389C16.3098 3 17.3325 3.1507 18.4279 3.69836C19.5232 4.24602 20.09 5.3744 20.1039 6.63144C20.1178 7.88847 20.1039 15.4307 20.1039 15.4307M15.9282 20.8778C14.5439 20.8778 16.3098 20.8778 12.9389 20.8778H11.1511C7.78026 20.8778 6.09438 20.8778 5.04764 19.8302" stroke="#767F8F" stroke-width="1.5" stroke-linecap="round"/>
<path d="M17.0516 14.2037C17.0516 15.6407 15.8866 16.8057 14.4495 16.8057C13.0124 16.8057 11.8474 15.6407 11.8474 14.2037C11.8474 12.7666 13.0124 11.6016 14.4495 11.6016C15.8866 11.6016 17.0516 12.7666 17.0516 14.2037Z" stroke="#767F8F" stroke-width="1.5"/>
<path d="M18.0332 18.9237C18.3389 19.2032 18.8133 19.1819 19.0928 18.8762C19.3723 18.5704 19.351 18.096 19.0453 17.8166L18.0332 18.9237ZM15.6178 16.7157L18.0332 18.9237L19.0453 17.8166L16.6298 15.6085L15.6178 16.7157Z" fill="#767F8F"/>
</svg>
