<svg width="24" height="24" viewBox="0 0 24 24" fill="none" xmlns="http://www.w3.org/2000/svg">
<path d="M13.9999 14V5.99997M13.9999 14L20.1019 17.487C20.1931 17.5392 20.2963 17.5665 20.4014 17.5662C20.5065 17.5659 20.6096 17.5381 20.7005 17.4854C20.7915 17.4328 20.867 17.3572 20.9195 17.2662C20.972 17.1752 20.9997 17.072 20.9999 16.967V3.03297C20.9999 2.92783 20.9723 2.82452 20.9199 2.73339C20.8674 2.64227 20.7919 2.56653 20.701 2.51376C20.61 2.46099 20.5068 2.43306 20.4017 2.43274C20.2965 2.43243 20.1931 2.45975 20.1019 2.51197L13.9999 5.99997M13.9999 14H6.99987M13.9999 5.99997H6.99987C5.93901 5.99997 4.92159 6.4214 4.17145 7.17155C3.92209 7.42091 3.70905 7.6998 3.53575 8C3.42189 8.19722 3.32518 8.40364 3.24658 8.61693M6.99987 14C5.93901 14 4.92159 13.5785 4.17145 12.8284C3.92209 12.579 3.70905 12.3002 3.53575 11.9999C3.42189 11.8027 3.32518 11.5963 3.24658 11.383M6.99987 14L7.75687 19.3C7.83586 19.8156 8.11515 20.2793 8.53406 20.5902C8.95297 20.901 9.47764 21.0341 9.99406 20.9603C10.5105 20.8865 10.9769 20.6119 11.292 20.1962C11.6071 19.7804 11.7454 19.2571 11.6769 18.74L10.9999 14H6.99987Z" stroke="#1E5CD1" stroke-width="1.5" stroke-linecap="round"/>
</svg>
