<svg width="24" height="24" viewBox="0 0 24 24" fill="none" xmlns="http://www.w3.org/2000/svg">
<path d="M7.53706 11.4442H9.77393M7.53706 7.8652H10.445H13.3529M7.53706 15.0232H8.87918M4 16.7008V10.158C4 6.78389 4 5.0964 5.04864 4.04864C6.0964 3 7.78389 3 11.158 3H12.9475C16.3216 3 18.0091 3 19.0568 4.04864M20.1055 14.6038C20.1055 17.9779 20.1055 18.7986 19.0568 19.8463M19.0568 19.8463C18.0091 20.895 16.3216 20.895 12.9475 20.895H11.158C7.78389 20.895 6.0964 20.895 5.04864 19.8463M19.0568 19.8463C19.9015 19.0026 20.0652 18.6122 20.0974 16.3933" stroke="white" stroke-width="1.5" stroke-linecap="round"/>
<path d="M16.8667 7.93064L17.2591 7.51547C17.5716 7.18551 17.9955 7.00008 18.4375 7C18.8795 6.99992 19.3035 7.18518 19.6161 7.51503C19.9287 7.84488 20.1044 8.2923 20.1045 8.75886C20.1045 9.22542 19.929 9.67291 19.6165 10.0029L19.2241 10.418M16.8667 7.93064C16.8667 7.93064 16.9158 8.81107 17.6525 9.58861C18.3891 10.3661 19.2241 10.418 19.2241 10.418M16.8667 7.93064L13.2556 11.7423C13.0098 12 12.8877 12.1297 12.7826 12.272C12.6588 12.4402 12.5529 12.6209 12.4656 12.8142C12.3918 12.977 12.3376 13.1497 12.2282 13.496L11.8781 14.6055L11.7645 14.9643M19.2241 10.418L15.613 14.2297C15.3671 14.4891 15.2451 14.618 15.1103 14.7289C14.9509 14.8596 14.7797 14.9714 14.5966 15.0636C14.4423 15.1414 14.2787 15.1987 13.9507 15.3141L12.8996 15.6836L12.5596 15.8035M11.7645 14.9643L11.6518 15.3239C11.6255 15.4074 11.6218 15.497 11.641 15.5826C11.6602 15.6682 11.7016 15.7465 11.7605 15.8087C11.8194 15.8709 11.8936 15.9146 11.9747 15.9348C12.0558 15.9551 12.1406 15.9511 12.2197 15.9234L12.5596 15.8035M11.7645 14.9643L12.5596 15.8035" stroke="white" stroke-width="1.5"/>
</svg>
