<svg width="24" height="24" viewBox="0 0 24 24" fill="none" xmlns="http://www.w3.org/2000/svg">
<path d="M9.67542 13.5919H4.73975C4.52062 13.5919 3.72709 13.5659 3.25566 14.2907C2.71033 15.1291 3.01038 17.015 4.41725 18.2352C5.16453 18.8833 5.68634 19.1048 6.55998 19.36C7.43361 19.6152 8.86114 19.6913 9.67157 19.6913" stroke="#1E5CD1" stroke-width="1.5" stroke-linecap="round"/>
<path d="M9.69713 13.5919H14.405C14.6242 13.5919 15.4177 13.5659 15.8891 14.2907C16.4344 15.1291 16.1344 17.015 14.7275 18.2352C13.9802 18.8833 13.4584 19.1048 12.5848 19.36C11.7112 19.6152 10.5076 19.6913 9.69713 19.6913" stroke="#1E5CD1" stroke-width="1.5" stroke-linecap="round"/>
<path fill-rule="evenodd" clip-rule="evenodd" d="M14.9711 9.30149C14.7524 9.82129 14.4421 10.2931 14.0603 10.6966C14.3272 10.7661 14.6071 10.803 14.8957 10.803C16.7219 10.803 18.2024 9.32253 18.2024 7.49624C18.2024 5.66995 16.7219 4.18945 14.8957 4.18945C14.607 4.18945 14.327 4.22644 14.0601 4.29594C14.4418 4.69945 14.7522 5.17121 14.9709 5.69099C15.9339 5.73046 16.7024 6.5236 16.7024 7.49624C16.7024 8.46884 15.934 9.26194 14.9711 9.30149Z" fill="#1E5CD1"/>
<path fill-rule="evenodd" clip-rule="evenodd" d="M14.7419 20.4044C15.4152 20.3577 16.1586 20.261 16.7771 20.0803C17.7212 19.8045 18.3495 19.5407 19.2009 18.8022C20.028 18.0849 20.5322 17.1709 20.7499 16.3026C20.9598 15.4651 20.9299 14.5433 20.4998 13.8822C19.8143 12.8282 18.6723 12.8396 18.4144 12.8421L18.387 12.8423H18.387H17.027C17.3481 12.9677 17.6829 13.1914 17.9424 13.5904C18.0769 13.7971 18.1717 14.0528 18.2247 14.3423H18.387H18.387C18.6353 14.3423 19.0135 14.3481 19.2424 14.7001C19.3577 14.8773 19.4504 15.3176 19.2949 15.9378C19.1472 16.5271 18.7979 17.1661 18.2181 17.669C17.704 18.1149 17.3355 18.3188 16.798 18.5025C16.5349 18.9003 16.209 19.2804 15.8168 19.6205C15.4275 19.9581 15.0854 20.2065 14.7419 20.4044Z" fill="#1E5CD1"/>
<ellipse cx="9.69378" cy="7.497" rx="3.497" ry="3.497" stroke="#1E5CD1" stroke-width="1.5"/>
</svg>
