<svg width="24" height="24" viewBox="0 0 24 24" fill="none" xmlns="http://www.w3.org/2000/svg">
<path d="M16.4999 3.41061C17.1668 3.53751 17.5628 3.67791 17.9039 4.0991C18.3332 4.62649 18.3107 5.19618 18.2648 6.33557C18.1028 10.4332 17.1848 15.6 12.0008 15.6C6.81677 15.6 5.89787 10.4341 5.73407 6.33557C5.68907 5.19618 5.66657 4.62559 6.09407 4.0991C6.52247 3.57171 7.03457 3.48531 8.05967 3.31251C9.36211 3.09905 10.6801 2.99459 11.9999 3.00022C12.6461 3.00022 13.2473 3.02272 13.7999 3.06141" stroke="#767F8F" stroke-width="1.5" stroke-linecap="round"/>
<path d="M18.3 5.70117L19.1541 5.98557C20.0451 6.28256 20.4906 6.43106 20.7453 6.78476C21 7.13845 21 7.60825 21 8.54693V8.61263C21 9.38662 21 9.77452 20.8137 10.0913C20.6274 10.4081 20.2881 10.5962 19.6113 10.9733L16.95 12.4511M5.7 5.70117L4.8459 5.98557C3.9549 6.28256 3.5094 6.43106 3.2547 6.78476C3 7.13845 3 7.60914 3 8.54693V8.61263C3 9.38662 3 9.77452 3.1863 10.0913C3.3726 10.4081 3.7119 10.5962 4.3887 10.9733L7.05001 12.4511" stroke="#767F8F" stroke-width="1.5"/>
<path d="M12 16.5V18.3" stroke="#767F8F" stroke-width="1.5" stroke-linecap="round"/>
<path d="M15.1496 21H8.84961L9.15561 19.4736C9.19637 19.2696 9.30652 19.0861 9.46731 18.9542C9.62811 18.8223 9.82963 18.7501 10.0376 18.75H13.9616C14.1696 18.7501 14.3711 18.8223 14.5319 18.9542C14.6927 19.0861 14.8029 19.2696 14.8436 19.4736L15.1496 21Z" stroke="#767F8F" stroke-width="1.5" stroke-linecap="round" stroke-linejoin="round"/>
<path d="M17.3996 21H6.59961" stroke="#767F8F" stroke-width="1.5" stroke-linecap="round"/>
</svg>
