<svg width="24" height="24" viewBox="0 0 24 24" fill="none" xmlns="http://www.w3.org/2000/svg">
<path d="M3 18.4286C3 19.8531 4.14686 21 5.57143 21H18.4286C19.8531 21 21 19.8531 21 18.4286V5.57143C21 4.14686 19.8531 3 18.4286 3H5.57143C4.14686 3 3 4.14686 3 5.57143V14.5249" stroke="#767F8F" stroke-width="1.5" stroke-linecap="round" stroke-linejoin="round"/>
<path d="M6.85547 6.85742H8.14118" stroke="#767F8F" stroke-width="1.5" stroke-linecap="round" stroke-linejoin="round"/>
<path d="M9.42913 8.14369C9.08814 8.14369 8.76111 8.00824 8.51999 7.76712C8.27887 7.526 8.14341 7.19897 8.14341 6.85798C8.14341 6.51699 8.27887 6.18996 8.51999 5.94884C8.76111 5.70772 9.08814 5.57227 9.42913 5.57227C9.59797 5.57227 9.76516 5.60552 9.92115 5.67013C10.0771 5.73475 10.2189 5.82945 10.3383 5.94884C10.4577 6.06823 10.5524 6.20997 10.617 6.36596C10.6816 6.52195 10.7148 6.68914 10.7148 6.85798C10.7148 7.02682 10.6816 7.19401 10.617 7.35C10.5524 7.50599 10.4577 7.64773 10.3383 7.76712C10.2189 7.88651 10.0771 7.98121 9.92115 8.04582C9.76516 8.11044 9.59797 8.14369 9.42913 8.14369Z" stroke="#767F8F" stroke-width="1.5" stroke-linecap="round" stroke-linejoin="round"/>
<path d="M10.7148 6.85745L17.1434 6.85742" stroke="#767F8F" stroke-width="1.5" stroke-linecap="round" stroke-linejoin="round"/>
<path d="M17.1412 12H15.8555" stroke="#767F8F" stroke-width="1.5" stroke-linecap="round" stroke-linejoin="round"/>
<path d="M14.5709 13.2863C14.9119 13.2863 15.2389 13.1508 15.48 12.9097C15.7211 12.6686 15.8566 12.3416 15.8566 12.0006C15.8566 11.6596 15.7211 11.3325 15.48 11.0914C15.2389 10.8503 14.9119 10.7148 14.5709 10.7148C14.2299 10.7148 13.9029 10.8503 13.6617 11.0914C13.4206 11.3325 13.2852 11.6596 13.2852 12.0006C13.2852 12.3416 13.4206 12.6686 13.6617 12.9097C13.9029 13.1508 14.2299 13.2863 14.5709 13.2863Z" stroke="#767F8F" stroke-width="1.5" stroke-linecap="round" stroke-linejoin="round"/>
<path d="M13.284 12L6.85547 12" stroke="#767F8F" stroke-width="1.5" stroke-linecap="round" stroke-linejoin="round"/>
<path d="M6.85547 17.1426H8.14118" stroke="#767F8F" stroke-width="1.5" stroke-linecap="round" stroke-linejoin="round"/>
<path d="M9.42913 18.4289C9.08814 18.4289 8.76111 18.2934 8.51999 18.0523C8.27887 17.8112 8.14341 17.4841 8.14341 17.1431C8.14341 16.8021 8.27887 16.4751 8.51999 16.234C8.76111 15.9929 9.08814 15.8574 9.42913 15.8574C9.59797 15.8574 9.76516 15.8907 9.92115 15.9553C10.0771 16.0199 10.2189 16.1146 10.3383 16.234C10.4577 16.3534 10.5524 16.4951 10.617 16.6511C10.6816 16.8071 10.7148 16.9743 10.7148 17.1431C10.7148 17.312 10.6816 17.4792 10.617 17.6352C10.5524 17.7911 10.4577 17.9329 10.3383 18.0523C10.2189 18.1717 10.0771 18.2664 9.92115 18.331C9.76516 18.3956 9.59797 18.4289 9.42913 18.4289Z" stroke="#767F8F" stroke-width="1.5" stroke-linecap="round" stroke-linejoin="round"/>
<path d="M10.7148 17.1426L17.1434 17.1426" stroke="#767F8F" stroke-width="1.5" stroke-linecap="round" stroke-linejoin="round"/>
</svg>
