<svg width="24" height="24" viewBox="0 0 24 24" fill="none" xmlns="http://www.w3.org/2000/svg">
<path d="M13.8 4C17.1939 4 18.8913 4 19.9452 5.12114C21 6.24133 21 8.04549 21 11.6528V12.6095M10.2 4C6.8061 4 5.1087 4 4.0548 5.12114C3 6.24133 3 8.04549 3 11.6528C3 15.2602 3 17.0644 4.0548 18.1846C5.1087 19.3057 6.8061 19.3057 10.2 19.3057H12.9M10.2 15.4793H6.6" stroke="white" stroke-width="1.5" stroke-linecap="round"/>
<path d="M17.4009 19.306C18.8921 19.306 20.1009 18.0212 20.1009 16.4362C20.1009 14.8513 18.8921 13.5664 17.4009 13.5664C15.9098 13.5664 14.7009 14.8513 14.7009 16.4362C14.7009 18.0212 15.9098 19.306 17.4009 19.306Z" stroke="white" stroke-width="1.5"/>
<path d="M19.65 18.826L20.55 19.7826M3 9.73828H11.1H21" stroke="white" stroke-width="1.5" stroke-linecap="round"/>
</svg>
