<svg width="24" height="24" viewBox="0 0 24 24" fill="none" xmlns="http://www.w3.org/2000/svg">
<circle cx="9.85227" cy="6.54685" r="3.29685" stroke="#1E5CD1" stroke-width="1.5"/>
<path d="M11.7243 12.8224H4.73203C4.51388 12.8224 3.72386 12.7965 3.25452 13.5181C2.71161 14.3527 3.01033 16.2303 4.41096 17.4451C5.15492 18.0903 5.67442 18.3108 6.54418 18.5649C7.41393 18.8189 8.61219 19.0224 9.41903 19.0224" stroke="#1E5CD1" stroke-width="1.5" stroke-linecap="round"/>
<path d="M17.5073 10.7624L17.8901 10.3787C18.1949 10.0738 18.6084 9.90242 19.0396 9.90234C19.4708 9.90227 19.8843 10.0735 20.1892 10.3783C20.4942 10.6831 20.6655 11.0966 20.6656 11.5278C20.6657 11.959 20.4945 12.3725 20.1897 12.6775L19.8068 13.0611M17.5073 10.7624C17.5073 10.7624 17.5552 11.576 18.2738 12.2946C18.9923 13.0132 19.8068 13.0611 19.8068 13.0611M17.5073 10.7624L13.9847 14.2849C13.7449 14.5231 13.6259 14.643 13.5233 14.7744C13.4026 14.9299 13.2992 15.0969 13.2141 15.2755C13.1421 15.426 13.0892 15.5856 12.9826 15.9056L12.6411 16.9309L12.5302 17.2625M19.8068 13.0611L16.2843 16.5836C16.0445 16.8234 15.9254 16.9425 15.794 17.045C15.6385 17.1658 15.4715 17.2691 15.2929 17.3543C15.1424 17.4262 14.9828 17.4792 14.6628 17.5858L13.6374 17.9273L13.3059 18.0381M12.5302 17.2625L12.4203 17.5949C12.3947 17.6721 12.391 17.7548 12.4097 17.834C12.4285 17.9131 12.4688 17.9854 12.5263 18.0429C12.5838 18.1004 12.6561 18.1407 12.7353 18.1595C12.8144 18.1782 12.8971 18.1745 12.9743 18.1489L13.3059 18.0381M12.5302 17.2625L13.3059 18.0381" stroke="#1E5CD1" stroke-width="1.5"/>
</svg>
