<svg width="21" height="20" viewBox="0 0 21 20" fill="none" xmlns="http://www.w3.org/2000/svg">
<path d="M17.2524 7.15533C17.2129 7.06488 17.1576 6.9822 17.089 6.91116L12.089 1.91116C12.018 1.84264 11.9353 1.78734 11.8449 1.74783C11.8199 1.73616 11.7932 1.72949 11.7665 1.72033C11.6968 1.6966 11.6242 1.6823 11.5507 1.67783C11.5332 1.67616 11.5174 1.66699 11.4999 1.66699H5.66654C4.74738 1.66699 3.99988 2.41449 3.99988 3.33366V16.667C3.99988 17.5862 4.74738 18.3337 5.66654 18.3337H15.6665C16.5857 18.3337 17.3332 17.5862 17.3332 16.667V7.50033C17.3332 7.48283 17.324 7.46699 17.3224 7.44866C17.3183 7.37509 17.304 7.30245 17.2799 7.23283C17.2715 7.20616 17.264 7.18033 17.2524 7.15533ZM14.4882 6.66699H12.3332V4.51199L14.4882 6.66699ZM5.66654 16.667V3.33366H10.6665V7.50033C10.6665 7.72134 10.7543 7.9333 10.9106 8.08958C11.0669 8.24586 11.2789 8.33366 11.4999 8.33366H15.6665L15.6682 16.667H5.66654Z" fill="#1C1D1F"/>
<path d="M7.33325 10.0003H13.9999V11.667H7.33325V10.0003ZM7.33325 13.3337H13.9999V15.0003H7.33325V13.3337ZM7.33325 6.66699H8.99992V8.33366H7.33325V6.66699Z" fill="#1C1D1F"/>
</svg>
