<svg width="15" height="14" viewBox="0 0 15 14" fill="none" xmlns="http://www.w3.org/2000/svg">
<g clip-path="url(#clip0_399_18)">
<path d="M13.5 8C13.5 4.68667 10.8133 2 7.5 2L7.5 -2.62268e-07L4.84 2.66667L7.5 5.33333L7.5 3.33333C10.08 3.33333 12.1667 5.42 12.1667 8C12.1667 10.58 10.08 12.6667 7.5 12.6667C4.92 12.6667 2.83333 10.58 2.83333 8C2.83333 6.71333 3.36 5.54667 4.20667 4.70667L3.26 3.76C2.17333 4.84667 1.5 6.34 1.5 8C1.5 11.3133 4.18667 14 7.5 14C10.8133 14 13.5 11.3133 13.5 8Z" fill="#325BC4"/>
</g>
<defs>
<clipPath id="clip0_399_18">
<rect width="14" height="14" fill="white" transform="translate(0.5)"/>
</clipPath>
</defs>
</svg>
