<svg width="228" height="168" viewBox="0 0 228 168" fill="none" xmlns="http://www.w3.org/2000/svg">
<g clip-path="url(#clip0_377_2195)">
<path d="M208.552 31.9494V38.6079C208.552 39.1299 210.48 39.5454 212.848 39.5454C215.216 39.5454 217.144 39.1299 217.144 38.6079V31.7363L208.542 31.9494H208.552Z" fill="white"/>
<path d="M119.087 141.884C117.872 136.525 115.766 131.092 113.565 126.298C112.245 123.432 110.893 120.801 109.678 118.542C109.321 117.882 108.955 117.221 108.577 116.582C106.712 113.365 104.658 110.477 102.217 107.899C100.98 106.589 99.6288 105.364 98.1513 104.213C97.4702 103.681 96.7577 103.159 96.0032 102.658C95.9928 102.658 95.9718 102.636 95.9613 102.626C92.713 100.453 88.8779 98.5775 84.1836 96.9795C83.5339 96.7557 82.8633 96.5427 82.1717 96.3296C81.9517 96.2657 81.7211 96.1911 81.4906 96.1272C81.4697 96.1272 81.4592 96.1272 81.4382 96.1165C80.3904 95.7969 79.2902 95.4986 78.1585 95.211C78.1585 95.211 78.148 95.211 78.1375 95.211C75.8637 94.625 73.4118 94.0923 70.7817 93.6129L49.8458 92.9844C46.5241 93.6555 43.5692 94.0497 40.5829 95.0085C19.2488 101.912 9.02186 126.607 5.37537 147.456C3.24825 159.59 8.00545 167.144 19.0916 166.6C20.5167 166.526 22.1513 166.046 23.744 165.237L84.2988 166.291C90.6907 166.76 100.163 166.643 105.287 166.291C111.176 165.887 116.101 164.949 118.7 158.642C120.69 153.795 120.449 147.871 119.087 141.863V141.884Z" fill="white"/>
<path d="M144.477 90.0329C144.477 90.0329 144.477 113.002 144.676 120.15C134.826 121.898 126.737 120.364 124.19 119.778C124.232 119.149 124.274 118.51 124.306 117.881C125.186 103.361 126.758 88.9889 126.883 74.4361C126.946 67.9268 126.904 61.4175 126.768 54.9082C127.785 56.4636 130.268 59.159 135.256 58.9779C138.829 58.85 141.186 58.3599 143.439 55.4302C143.586 64.2833 143.911 79.9121 144.466 90.0436L144.477 90.0329Z" fill="white"/>
<path d="M211.507 39.5566L211.58 40.8457C211.821 41.975 212.859 41.8045 212.859 41.8045C212.859 41.8045 213.896 41.9643 214.137 40.8457L214.21 39.5566H211.507Z" fill="#141316"/>
<path d="M146.824 126.542L147.861 119.479C134.428 122.76 123.373 119.553 123.373 119.553L116.887 134.809C119.611 141.915 121.267 151.865 118.427 158.534C115.975 164.309 112 164.999 112 164.999H162C163.226 160.003 164.941 139.805 164.941 139.805L146.824 126.531V126.542Z" fill="#141316"/>
<path d="M158.811 164.746C158.811 164.746 158.864 164.479 158.938 163.979" stroke="white" stroke-width="0.44" stroke-linecap="round" stroke-linejoin="round"/>
<path d="M159.209 162.359C160.005 157.469 161.755 146.006 162.216 137.004" stroke="white" stroke-width="0.44" stroke-linecap="round" stroke-linejoin="round"/>
<path d="M162.258 136.184C162.269 135.918 162.279 135.662 162.29 135.406" stroke="white" stroke-width="0.44" stroke-linecap="round" stroke-linejoin="round"/>
<path d="M124.001 124.998C124.001 124.998 138.462 127.448 145.011 125.573" stroke="black" stroke-width="0.44" stroke-linecap="round" stroke-linejoin="round"/>
<path d="M174.655 35.9024C172.905 35.146 170.924 35.2206 169.028 35.3165C173.858 34.0381 177.851 30.9166 175.399 26.6445C172.727 21.9996 168.598 24.9932 164.752 25.8561C162.594 26.3356 159.325 26.2184 157.533 24.7588C156.653 24.045 156.003 23.0862 155.469 22.0848C152.776 17.1202 153.017 11.2075 150.177 6.29624C148.668 3.69678 146.394 1.45954 143.565 0.532677C142.318 0.138496 141.04 0 139.761 0C137.488 0.0106535 135.151 0.532677 133.307 1.89633C131.463 3.25998 130.226 5.5718 130.499 7.86231C130.499 7.86231 139.353 37.362 139.353 37.3726C141.197 44.7662 143.335 46.5027 147.851 49.3898C150.806 51.2755 154.075 52.8309 157.491 53.5873C160.666 54.3011 165.999 54.5887 168.21 51.5418C168.829 50.6895 169.08 49.539 168.766 48.5375C168.326 47.1526 166.974 46.3216 165.727 45.6078C169.761 46.2044 172.863 45.5758 175.692 43.1468C176.53 42.4331 177.274 41.5169 177.484 40.4302C177.84 38.5339 176.404 36.6588 174.655 35.9024Z" fill="#141316"/>
<path d="M143.356 48.9419C143.356 49.6664 143.397 52.0527 143.45 55.4193C141.197 58.349 138.839 58.8391 135.266 58.9669C130.278 59.148 127.795 56.4527 126.779 54.8972C126.747 53.3525 126.705 51.8077 126.663 50.263C127.711 50.1777 128.298 49.8475 128.298 49.8475C128.508 48.6969 128.696 46.3957 128.602 44.5313C128.12 44.4142 127.565 44.2011 127.208 44.0732C124.987 43.2849 123.216 41.8573 121.98 39.7053C119.779 35.87 119.098 30.4367 119.192 26.0688L119.15 25.7918C120.869 25.5148 122.535 24.5133 123.572 23.1071C124.243 24.247 125.584 24.9075 127.03 25.0034C128.916 25.1312 130.76 24.0552 131.861 22.4785C132.07 22.9686 132.416 23.4054 132.846 23.7037C133.862 24.4281 135.224 24.5133 136.429 24.2044C136.964 24.0659 137.435 23.7356 137.812 23.3095L137.928 23.4054C137.928 23.4054 138.955 27.8586 138.955 27.8692C139.479 26.4629 140.663 26.4842 141.071 26.5375C142.538 26.7293 143.67 27.9331 143.827 29.8614C144.005 32.088 142.8 33.6115 140.495 34.4424C140.223 36.3814 139.74 38.2031 138.818 39.7799H138.808C139.657 44.1478 140.296 46.6194 140.799 48.4412C141.731 48.633 142.601 48.8354 143.356 48.9313V48.9419Z" fill="white"/>
<path d="M126.202 53.832C126.202 53.832 128.277 59.2227 135.266 58.967C139.059 58.8285 141.48 58.2852 143.869 54.8548" stroke="black" stroke-width="0.44" stroke-linecap="round" stroke-linejoin="round"/>
<path d="M159.576 53.8213C161.42 54.1622 163.369 54.1516 165.161 53.5337C166.429 53.0969 167.937 52.479 168.619 51.2219C169.499 49.6025 168.482 47.5783 166.743 46.2786C165.747 45.5329 164.888 44.0414 163.474 44.3503C162.646 44.5314 163.128 45.2878 163.641 45.5542C164.836 46.1827 165.988 45.7672 167.246 45.8418C168.503 45.9164 169.708 45.8205 170.913 45.5116C173.061 44.9576 175.189 44.2651 176.477 42.422C177.085 41.5591 177.745 40.6535 177.399 39.0449C176.635 35.4546 172.894 35.4013 169.677 35.0391C168.765 34.9326 166.607 33.7394 165.863 34.7195C165.465 35.2522 165.936 35.7103 166.607 35.689C167.194 35.6677 167.78 35.4972 168.346 35.4013C170.735 35.0178 174.539 33.3772 175.974 30.3516" stroke="black" stroke-width="0.44" stroke-linecap="round" stroke-linejoin="round"/>
<path d="M128.507 9.47098C128.507 9.47098 128.612 7.59596 131.169 7.70249C131.169 7.70249 135.161 7.18047 134.857 10.9305L128.507 9.47098Z" fill="#FFBD09"/>
<path d="M142.737 33.207C142.737 33.207 141.92 36.3285 140.285 37.053L140.495 34.4535C140.495 34.4535 141.93 34.1445 142.748 33.207H142.737Z" fill="#141316"/>
<path d="M137.928 23.4167C133.422 25.867 131.892 22.3194 131.892 22.3194C131.022 24.2476 128.057 24.9188 128.057 24.9188C124.274 25.4941 123.656 22.7348 123.656 22.7348C120.586 27.4224 116.95 25.7498 116.95 25.7498C113.366 23.8215 115.776 18.3136 115.776 18.3136C120.795 7.79858 132.049 9.41792 132.049 9.41792C132.049 9.41792 142.129 10.4087 143.775 19.6134C143.775 19.6134 144.393 26.1653 143.565 28.5623C143.565 28.5623 142.538 26.2718 140.547 26.5382C140.547 26.5382 139.468 26.9323 138.965 27.8805L137.938 23.4167H137.928Z" fill="#141316"/>
<path d="M43.559 75.6617C40.4889 73.4457 37.5235 67.2347 39.8916 62.1423C41.2014 59.3192 43.2656 57.5507 45.9376 56.1551C48.3267 54.9086 49.9718 53.3851 50.7472 50.7111C51.5226 48.0371 52.8744 45.1286 55.9341 45.1819C55.9341 45.1819 58.7108 45.0967 59.2976 48.069C59.7901 46.6201 60.9847 45.8531 61.5819 45.6294C63.3737 44.9582 64.6416 44.9262 66.0877 45.7359C67.5337 46.5456 68.6025 48.9533 68.9587 50.5726C69.7237 54.1415 69.3674 58.9037 65.5847 61.9186C61.0056 65.5728 55.8607 64.7312 55.8607 64.7312C53.7126 69.2056 47.6666 68.5771 47.6666 68.5771C48.8926 70.5586 49.1021 76.3861 49.1021 76.3861C48.2848 76.4927 46.5454 74.6176 46.5454 74.6176C45.3823 74.4791 44.3554 74.7242 43.58 75.6617H43.559Z" fill="#141316"/>
<path d="M53.3878 91.7914C54.1003 89.1919 54.006 85.8574 54.006 85.8574V85.8361C53.5449 85.5697 53.0944 85.2608 52.6752 84.9199C51.0825 83.6095 49.0287 81.3829 48.8925 81.3829C47.4046 81.4894 45.7071 81.3829 44.4601 80.456C43.0141 79.3907 42.7836 77.5796 43.4961 76.0135C43.6428 75.6832 43.821 75.4275 44.02 75.2251C44.7326 74.6498 45.5918 74.5113 46.5453 74.6179C46.5453 74.6179 48.2848 76.4929 49.1021 76.3864C49.1021 76.3864 48.8925 70.5589 47.6665 68.5773C47.6665 68.5773 53.7021 69.2059 55.8607 64.7207C55.8607 64.7207 61.0056 65.5624 65.5846 61.9082C68.7177 65.9779 70.6248 71.7095 70.4571 76.8764C70.3418 80.5519 68.7596 83.4177 66.402 85.1223C66.2972 86.4753 67.2193 92.0897 67.2193 92.0897C68.3405 92.7182 69.5664 93.2403 70.8029 93.6025C69.5769 96.202 64.3063 97.5549 59.1823 97.3525C54.6661 97.1714 50.6843 95.6906 49.867 92.9846C52.0675 92.3134 53.3982 91.7914 53.3982 91.7914H53.3878Z" fill="white"/>
<mask id="mask0_377_2195" style="mask-type:luminance" maskUnits="userSpaceOnUse" x="65" y="128" width="33" height="22">
<path d="M92.137 128.535L97.4077 145.911L65.5742 149.768L69.8704 132.701L92.137 128.535Z" fill="white"/>
</mask>
<g mask="url(#mask0_377_2195)">
<path d="M40.1851 136.653C56.5628 140.403 78.2636 141.234 95.0501 133.531" stroke="#FFBD09" stroke-width="4.98" stroke-miterlimit="10"/>
</g>
<mask id="mask1_377_2195" style="mask-type:luminance" maskUnits="userSpaceOnUse" x="5" y="92" width="116" height="75">
<path d="M29.9474 159.856C27.9984 162.562 23.9642 165.79 20.5797 166.365C9.022 168.325 3.27982 161.369 5.53268 146.017C6.82153 137.196 10.0384 128.119 14.1355 119.948C15.2776 117.668 18.5154 112.479 19.4061 111.158C31.3934 93.8358 49.8564 92.9941 49.8564 92.9941L70.7923 93.6227C87.9874 96.1689 103.443 104.287 109.678 118.552C114.634 128.684 123.666 146.581 118.7 158.663C116.111 164.98 111.176 165.907 105.287 166.312C100.174 166.663 90.7013 166.781 84.299 166.312L85.4202 149.351L97.397 145.921L92.1264 128.545C91.2881 128.161 90.2822 127.139 88.5951 126.052C76.7231 129.142 62.902 129.728 48.6724 127.405C47.0063 127.128 45.0049 126.553 43.255 126.127C44.5962 119.884 46.4404 111.691 46.6186 110.541C43.276 109.656 37.3033 107.621 32.7975 106.268C30.9009 110.434 28.0927 116.315 25.7875 120.992L19.4899 133.328L29.9264 159.866L29.9474 159.856Z" fill="white"/>
</mask>
<g mask="url(#mask1_377_2195)">
<path d="M34.6523 91.2797C37.0414 100.665 44.8583 106.152 53.8802 107.899C69.5979 110.935 86.4053 105.662 93.6144 90.0332" stroke="#FFBD09" stroke-width="4.98" stroke-miterlimit="10"/>
<path d="M20.7368 101.998C30.356 119.896 48.1065 123.976 60.8063 124.072C80.3066 124.232 95.5108 118.767 106.304 105.642" stroke="#FFBD09" stroke-width="4.98" stroke-miterlimit="10"/>
<path d="M12.3438 116.049C16.6399 122.92 23.4823 128.3 30.5657 129.994" stroke="#FFBD09" stroke-width="4.98" stroke-miterlimit="10"/>
<path d="M91.1626 131.444C94.1699 131.327 97.2296 129.559 99.9226 128.355C106.765 125.287 113.157 121.633 118.847 116.668" stroke="#FFBD09" stroke-width="4.98" stroke-miterlimit="10"/>
<path d="M87.5264 145.08C92.2836 151.792 93.2057 160.847 93.8239 170.84" stroke="#FFBD09" stroke-width="4.98" stroke-miterlimit="10"/>
<path d="M92.2837 144.451C103.359 145.026 115.315 154.338 116.541 168.081" stroke="#FFBD09" stroke-width="4.98" stroke-miterlimit="10"/>
<path d="M92.8076 140.328C102.574 136.333 115.619 136.802 122.378 143.045" stroke="#FFBD09" stroke-width="4.98" stroke-miterlimit="10"/>
</g>
<mask id="mask2_377_2195" style="mask-type:luminance" maskUnits="userSpaceOnUse" x="4" y="106" width="43" height="61">
<path d="M32.8183 106.259C30.6702 110.009 26.5417 120.066 21.2501 129.675L14.1353 119.948C12.6578 122.495 11.2747 126.671 9.98582 129.366C7.67008 135.982 6.38124 141.618 5.37531 147.477C3.8245 156.533 6.19263 167.25 19.0916 166.622C22.6333 166.451 26.4579 164.225 29.9367 159.857L42.3222 129.984C43.5482 125.201 44.9838 118.638 46.6184 110.52L32.7973 106.248L32.8183 106.259Z" fill="white"/>
</mask>
<g mask="url(#mask2_377_2195)">
<path d="M7.53418 129.996C14.0832 145.295 28.732 150.866 42.4797 154.073" stroke="#FFBD09" stroke-width="4.98" stroke-miterlimit="10"/>
<path d="M2.41016 141.021C7.02066 152.368 10.269 155.585 15.3091 159.239C19.9196 162.574 25.2426 163.607 32.2003 164.758" stroke="#FFBD09" stroke-width="4.98" stroke-miterlimit="10"/>
<path d="M28.187 111.703C34.4531 117.499 47.0167 120.013 54.2154 120.087" stroke="#FFBD09" stroke-width="4.98" stroke-miterlimit="10"/>
<path d="M21.5752 124.52C29.7484 131.966 37.7329 133.106 46.0528 133.873" stroke="#FFBD09" stroke-width="4.98" stroke-miterlimit="10"/>
</g>
<path d="M61.6655 68.3105L62.9125 72.1245L64.1908 71.4107L61.6655 68.3105Z" fill="#141316"/>
<path d="M126.349 30.7988L126.056 34.8046L127.512 34.6448L126.349 30.7988Z" fill="#141316"/>
<path d="M29.9475 159.857C27.3908 163.703 22.6441 166.451 19.1024 166.622C8.01619 167.155 3.25899 159.612 5.38611 147.477C9.04308 126.618 19.2595 101.923 40.5936 95.03C43.58 94.0606 46.5349 93.677 49.8565 93.0059" stroke="black" stroke-width="0.44" stroke-linecap="round" stroke-linejoin="round"/>
<path d="M84.2153 167.794H30.5448L28.1558 130.197H86.6044L84.2153 167.794Z" fill="white"/>
<path d="M84.2153 167.794H30.5448L28.1558 130.197H86.6044L84.2153 167.794Z" stroke="black" stroke-width="0.44" stroke-linecap="round" stroke-linejoin="round"/>
<path d="M85.4307 149.352L97.4075 145.922L92.1369 128.546C91.2986 128.162 90.2927 127.139 88.6056 126.053" stroke="black" stroke-width="0.44" stroke-linecap="round" stroke-linejoin="round"/>
<path d="M23.5972 165.375H30.1567" stroke="black" stroke-width="0.44" stroke-linecap="round" stroke-linejoin="round"/>
<path d="M57.38 152.452C59.4981 152.452 61.2151 150.907 61.2151 149.001C61.2151 147.094 59.4981 145.549 57.38 145.549C55.262 145.549 53.5449 147.094 53.5449 149.001C53.5449 150.907 55.262 152.452 57.38 152.452Z" fill="#141316"/>
<path d="M54.0162 85.8361C53.5447 85.5698 53.0941 85.2715 52.675 84.9199C51.0822 83.6095 49.018 81.3723 48.8922 81.3829C47.4043 81.4895 45.7068 81.3829 44.4494 80.4561C43.0034 79.3907 42.7728 77.5796 43.4854 76.0135C44.4389 73.9254 46.5346 74.6179 46.5346 74.6179" stroke="black" stroke-width="0.44" stroke-linecap="round" stroke-linejoin="round"/>
<path d="M59.8107 87.0389C57.9665 87.1561 55.5564 86.7086 54.0161 85.8457" stroke="black" stroke-width="0.44" stroke-linecap="round" stroke-linejoin="round"/>
<path d="M59.7373 76.9083C59.7373 76.9083 63.2161 74.5113 65.5738 74.7243C65.5738 74.7243 67.0093 78.2613 64.6517 79.3054C64.6517 79.3054 61.6863 80.7649 59.7373 76.9083Z" stroke="black" stroke-width="0.44" stroke-linecap="round" stroke-linejoin="round"/>
<path d="M56.7304 71.2824C57.0792 71.0971 57.1489 70.5326 56.8861 70.0216C56.6234 69.5106 56.1276 69.2466 55.7789 69.4319C55.4302 69.6173 55.3605 70.1818 55.6232 70.6928C55.886 71.2038 56.3817 71.4678 56.7304 71.2824Z" fill="black"/>
<path d="M123.059 31.3606C123.447 31.2978 123.69 30.7853 123.601 30.2158C123.512 29.6463 123.125 29.2356 122.736 29.2984C122.348 29.3612 122.105 29.8738 122.194 30.4432C122.283 31.0127 122.67 31.4234 123.059 31.3606Z" fill="black"/>
<path d="M130.727 30.5423C131.116 30.4795 131.359 29.9669 131.27 29.3975C131.181 28.828 130.794 28.4173 130.405 28.48C130.016 28.5428 129.773 29.0554 129.862 29.6249C129.951 30.1943 130.339 30.6051 130.727 30.5423Z" fill="black"/>
<path d="M64.8583 67.9484C65.2071 67.7631 65.2768 67.1986 65.014 66.6876C64.7513 66.1766 64.2556 65.9126 63.9068 66.098C63.5581 66.2833 63.4884 66.8478 63.7511 67.3588C64.0139 67.8698 64.5096 68.1338 64.8583 67.9484Z" fill="black"/>
<path d="M54.0059 85.8671C54.0059 85.8671 54.1107 89.2017 53.3877 91.8012C53.3877 91.8012 52.0569 92.3232 49.8564 92.9944C50.6738 95.7003 54.6556 97.1812 59.1718 97.3623C64.2852 97.5754 69.5664 96.2224 70.7923 93.6123C69.5664 93.25 68.3404 92.728 67.2087 92.0994C67.2087 92.0994 66.2866 86.4744 66.3914 85.1214C68.749 83.4168 70.3313 80.551 70.4465 76.8755C70.6142 71.7192 68.6966 65.977 65.5741 61.918" stroke="black" stroke-width="0.44" stroke-linecap="round" stroke-linejoin="round"/>
<path d="M53.5132 69.3864C53.5446 69.0135 53.7437 68.6726 53.9847 68.4063C54.2257 68.1399 54.6658 67.8097 55.284 67.7031" stroke="black" stroke-width="0.44" stroke-linecap="round" stroke-linejoin="round"/>
<path d="M62.7554 64.8905C63.3736 64.4218 64.0861 64.3152 64.7987 64.6774" stroke="black" stroke-width="0.44" stroke-linecap="round" stroke-linejoin="round"/>
<path d="M45.4766 78.0795C45.9062 77.7599 46.4511 77.6108 46.975 77.6747C47.4989 77.7386 48.0019 78.0049 48.3372 78.4204" stroke="black" stroke-width="0.44" stroke-linecap="round" stroke-linejoin="round"/>
<path d="M131.326 44.6169C133.191 44.4251 135.004 43.6687 136.492 42.4862C136.827 42.2198 137.079 42.0068 137.32 41.7617C137.456 41.6232 137.592 41.4741 137.739 41.293" stroke="black" stroke-width="0.44" stroke-linecap="round" stroke-linejoin="round"/>
<path d="M220.257 55.2913C219.984 55.0037 219.555 54.9397 219.167 55.0143C219.01 55.0463 218.853 55.1102 218.706 55.1741C219.523 54.6201 219.806 53.5867 219.293 52.9795C218.968 52.596 218.391 52.5214 217.909 52.6599C217.427 52.7984 217.008 53.1073 216.6 53.395C215.814 53.9383 214.965 54.4603 214.064 54.9291H214.043C214.892 54.4071 215.52 53.6294 215.353 52.7025C215.206 51.8609 214.399 51.6798 213.687 51.8715C213.205 52.01 212.775 52.287 212.366 52.5747C209.925 54.2046 207.326 55.7494 204.497 56.4206L203.826 56.5591L202.915 56.6976C203.208 55.8879 203.627 55.4511 203.9 55.0782C204.35 54.471 205.084 53.363 204.811 52.6599C204.235 51.179 202.506 51.7863 201.762 52.3509C199.478 54.0875 198.399 55.3872 197.477 58.5193C197.162 59.5634 197.089 61.2893 195.632 62.1522L203.313 69.1729C204.057 68.3632 205.409 67.5535 206.446 67.202C207.452 66.8611 208.908 66.5734 209.956 66.3603C211.549 66.0301 212.607 65.3696 213.991 64.5279C214.913 63.9633 215.856 63.42 216.809 62.9086C217.679 62.4505 218.842 61.8113 219.439 60.9696C219.921 60.2772 219.848 59.5208 219.167 59.0414C218.758 58.7537 218.255 58.7644 217.752 58.8816C219.314 58.2956 221.367 56.4632 220.257 55.2807V55.2913Z" fill="white"/>
<path d="M195.643 62.1522C197.099 61.2893 197.172 59.574 197.487 58.5193C198.409 55.3978 199.478 54.0875 201.772 52.3509C202.516 51.7863 204.245 51.179 204.822 52.6599C205.094 53.363 204.361 54.471 203.91 55.0782C203.459 55.6855 202.59 56.4845 202.59 58.8602" stroke="black" stroke-width="0.44" stroke-linecap="round" stroke-linejoin="round"/>
<path d="M203.082 56.6878C206.467 56.2617 209.526 54.4825 212.376 52.5756C212.796 52.2986 213.215 52.0109 213.697 51.8724C214.399 51.6807 215.216 51.8618 215.363 52.7034C215.52 53.6303 214.891 54.408 214.053 54.93" stroke="black" stroke-width="0.44" stroke-linecap="round" stroke-linejoin="round"/>
<path d="M209.526 56.879C211.978 56.0587 214.535 54.8442 216.599 53.3953C217.008 53.1077 217.427 52.7987 217.909 52.6602C218.391 52.5217 218.967 52.5963 219.292 52.9799C219.816 53.5871 219.523 54.6525 218.674 55.1958" stroke="black" stroke-width="0.44" stroke-linecap="round" stroke-linejoin="round"/>
<path d="M210.847 58.7104C213.183 57.9966 215.992 56.7075 218.119 55.493C218.454 55.3013 218.8 55.0988 219.177 55.0136C219.554 54.9284 219.994 55.003 220.267 55.2906C221.451 56.5477 219.03 58.5612 217.459 58.9874" stroke="black" stroke-width="0.44" stroke-linecap="round" stroke-linejoin="round"/>
<path d="M203.323 69.1735C204.067 68.3639 205.419 67.5542 206.456 67.2026C207.462 66.8617 208.919 66.5741 209.966 66.361C211.559 66.0307 212.617 65.3702 214.001 64.5286C214.923 63.964 215.866 63.4206 216.819 62.9093C217.689 62.4511 218.852 61.8119 219.449 60.9703C219.931 60.2778 219.858 59.5214 219.177 59.042C218.538 58.5946 217.678 58.8503 216.966 59.1592C215.509 59.7771 214.095 60.5442 212.544 60.8318C209.139 61.4604 206.372 60.0115 202.694 62.302" stroke="black" stroke-width="0.44" stroke-linecap="round" stroke-linejoin="round"/>
<path d="M143.858 48.9962C142.999 48.9323 141.941 48.6873 140.788 48.4529C140.275 46.6312 139.635 44.1595 138.797 39.7916H138.808C139.73 38.2149 140.212 36.3931 140.484 34.4542C142.789 33.6232 143.984 32.0997 143.806 29.8731C143.649 27.9448 142.528 26.7516 141.05 26.5599C140.652 26.5066 139.468 26.4853 138.944 27.8916C138.944 27.8809 137.917 23.4277 137.917 23.4277" stroke="black" stroke-width="0.44" stroke-linecap="round" stroke-linejoin="round"/>
<path d="M165.8 89.4577L165.569 89.6069C165.569 89.6069 168.64 121.45 169.457 139.977C158.811 142.885 145.304 141.436 145.304 141.436C145.095 137.686 144.686 120.204 144.686 120.204C144.476 113.13 144.476 90.0224 144.476 90.0224C143.659 75.2459 143.345 48.7079 143.345 48.7079V48.5801C146.939 48.8358 150.606 49.475 154.399 50.8919C158.57 52.458 161.577 54.6739 164.532 57.9658C168.828 62.7493 172.318 67.5434 176.404 72.1138L195.653 61.2898L204.256 69.6102C185.321 96.1481 178.667 96.2547 178.667 96.2547C173.564 97.2668 168.451 92.4727 165.8 89.4364V89.4577Z" fill="#FFBD09"/>
<path d="M127.994 38.7901C129.566 39.4294 131.536 38.7475 132.406 37.2773" stroke="black" stroke-width="0.44" stroke-linecap="round" stroke-linejoin="round"/>
<path d="M128.916 26.1541C129.828 25.3338 131.357 25.5894 132.269 26.7294" stroke="black" stroke-width="0.44" stroke-linecap="round" stroke-linejoin="round"/>
<path d="M121.099 27.5493C121.497 27.0592 122.367 26.6437 123.457 27.0805" stroke="black" stroke-width="0.44" stroke-linecap="round" stroke-linejoin="round"/>
<path d="M139.929 31.4379C139.835 30.6069 140.39 29.744 141.186 29.4883" stroke="black" stroke-width="0.44" stroke-linecap="round" stroke-linejoin="round"/>
<path d="M143.554 28.5721C144.843 24.8008 144.183 18.9946 142.129 15.6174C140.516 12.9754 137.98 11.111 135.119 10.1309" stroke="black" stroke-width="0.44" stroke-linecap="round" stroke-linejoin="round"/>
<path d="M131.378 134.98L134.449 137.271V164.5" stroke="black" stroke-width="0.44" stroke-linecap="round" stroke-linejoin="round"/>
<path d="M118.7 158.667C118.7 158.667 118.711 158.633 118.734 158.588C118.722 158.611 118.711 158.645 118.7 158.667Z" fill="#141316"/>
<path d="M118.776 158.492C118.776 158.492 118.742 158.57 118.731 158.592C118.742 158.559 118.765 158.526 118.776 158.492Z" fill="#141316"/>
<path d="M167.519 109.381L154.421 111.458C154.421 111.458 152.576 124.573 159.534 125.617C159.534 125.617 164.648 126.757 168.745 123.742" stroke="black" stroke-width="0.44" stroke-linecap="round" stroke-linejoin="round"/>
<path d="M130.657 120.939C130.657 120.939 130.351 124.37 130.446 125.627" stroke="black" stroke-width="0.44" stroke-linecap="round" stroke-linejoin="round"/>
<path d="M136.189 121.248C136.189 121.248 136.295 124.87 136.083 126.245" stroke="black" stroke-width="0.44" stroke-linecap="round" stroke-linejoin="round"/>
<path d="M119.192 26.0684C119.098 30.4363 119.779 35.8696 121.979 39.7049C123.216 41.8569 124.987 43.2845 127.198 44.0728C127.554 44.2007 128.12 44.4138 128.591 44.5309C128.696 46.406 128.497 48.7071 128.287 49.8471C128.287 49.8471 127.69 50.1773 126.653 50.2626" stroke="black" stroke-width="0.44" stroke-linecap="round" stroke-linejoin="round"/>
<path d="M126.904 74.425C126.978 66.3709 126.904 58.3169 126.674 50.2734L126.642 49.9219C123.415 50.1669 116.164 51.3175 110.904 56.5164C110.904 56.5164 104.983 61.4703 101.18 79.2085C100.488 82.4152 100.258 89.5744 99.0317 92.3869L85.064 94.443L85.9546 95.0077C86.4262 95.0822 86.7929 95.3592 87.3168 95.4871C89.3496 95.9558 90.5232 96.7122 92.3884 97.671C93.562 98.2783 93.8658 99.4608 94.4317 100.665C95.0604 101.996 95.2071 102.497 96.5064 103.243C97.4914 103.807 100.383 105.661 102.72 108.783C104.669 109.017 107.331 108.261 109.678 107.952L109.374 106.311L109.049 109.39L108.295 116.581C108.295 116.581 109.311 117.902 109.678 118.563C110.893 120.811 112.339 124.092 113.89 127.213C116.939 133.35 119.035 141.468 119.035 141.468L124.421 142.49L124.012 127.085C123.918 124.017 124.138 120.938 124.327 117.881C125.207 103.36 126.779 88.9884 126.904 74.4357V74.425Z" fill="#FFBD09"/>
<path d="M70.792 93.6133C73.4221 94.1033 75.8636 94.636 78.1479 95.2113C78.1479 95.2113 78.1583 95.2113 78.1688 95.2113C79.3005 95.499 80.4007 95.7973 81.4486 96.1169C81.4695 96.1169 81.48 96.1169 81.5009 96.1275C81.7315 96.1914 81.962 96.266 82.182 96.3299C82.8736 96.543 83.5442 96.7561 84.1939 96.9798C88.8882 98.5778 92.7233 100.453 95.9716 102.626C95.9821 102.626 96.0031 102.647 96.0136 102.658C96.7575 103.159 97.4701 103.681 98.1616 104.214C99.6391 105.364 100.98 106.589 102.227 107.9C104.679 110.478 106.723 113.365 108.588 116.582C108.965 117.222 109.332 117.871 109.688 118.543C110.903 120.79 112.266 123.433 113.575 126.298C115.776 131.082 117.882 136.515 119.098 141.884C120.46 147.893 120.701 153.816 118.71 158.664C116.111 164.971 111.186 165.908 105.297 166.313C100.184 166.665 90.7115 166.782 84.3196 166.313" stroke="black" stroke-width="0.44" stroke-linecap="round" stroke-linejoin="round"/>
<path d="M113.157 69.6855C113.157 69.6855 105.172 77.1217 108.452 85.8683C108.452 85.8683 110.904 92.5267 110.495 95.6482L108.86 107.836" stroke="black" stroke-width="0.44" stroke-linecap="round" stroke-linejoin="round"/>
<path d="M109.143 109.381C109.143 109.381 115.849 110.212 117.893 110.212C117.893 110.212 118.479 113.578 118.155 117.861C117.798 122.559 117.295 125.99 113.565 126.299" stroke="black" stroke-width="0.44" stroke-linecap="round" stroke-linejoin="round"/>
<path d="M165.569 89.6063L164.542 79.6133" stroke="black" stroke-width="0.44" stroke-linecap="round" stroke-linejoin="round"/>
<path d="M47.4987 100.025C47.1215 98.6618 46.0946 97.2342 45.0153 96.4139C43.7894 95.4764 43.1711 94.2938 42.6367 92.9834C42.2071 91.9181 41.9975 91.3428 41.1069 90.629C40.6773 90.2881 40.0905 90.0431 39.577 90.2561C39.1369 90.4372 38.8645 90.906 38.7807 91.3747C38.6968 91.8542 38.9169 92.6745 39.1055 93.1432C39.3151 93.644 39.4513 94.1979 39.4513 94.9011L39.4303 94.933C37.1879 93.58 35.5952 91.2363 34.8303 89.7661C33.9292 88.0402 33.2166 86.1971 32.1164 84.5884C31.8544 84.2049 31.5506 83.8214 31.1209 83.6403C30.7018 83.4698 29.9369 83.3739 29.633 84.1516C29.172 83.4379 28.5432 82.8839 27.7155 83.0969C26.9191 83.31 26.5104 84.0451 26.7619 85.3768C26.4476 85.4727 26.1856 85.7071 25.9865 85.9734C25.515 86.6339 25.515 87.5821 25.9446 89.1162C25.9446 89.1162 25.7979 89.9898 26.0075 90.7888C26.217 91.5878 26.4895 92.1205 26.741 92.5679C26.7933 92.8449 26.8772 93.1219 26.9715 93.3776C27.7678 95.6149 29.3501 97.3301 31.4248 98.6937C32.1478 99.1625 32.9756 99.4395 33.6672 99.9509C34.3588 100.462 35.4381 101.645 35.48 102.508C35.5114 103.094 35.2914 103.669 35.0818 104.212C34.6941 105.203 34.5159 105.65 34.1282 106.641L45.2039 109.891C45.4764 108.303 45.9793 105.693 46.5871 103.957C47.4568 102.966 47.7921 101.389 47.5092 100.004L47.4987 100.025Z" fill="white"/>
<path d="M45.2041 109.923C45.4765 108.336 45.9795 105.725 46.5872 103.989C47.4569 102.998 47.7923 101.421 47.5093 100.036C47.1321 98.6728 46.1052 97.2452 45.026 96.4249C43.8 95.4874 43.1818 94.3048 42.6474 92.9945C42.2177 91.9291 42.0082 91.3538 41.1175 90.64C40.6879 90.2991 40.1011 90.0541 39.5877 90.2672C39.1476 90.4483 38.8751 90.917 38.7913 91.3858C38.7075 91.8652 38.9275 92.6855 39.1161 93.1543C39.3257 93.655 39.4619 94.209 39.4619 94.9121" stroke="black" stroke-width="0.44" stroke-linecap="round" stroke-linejoin="round"/>
<path d="M33.9399 95.4551C32.4624 94.7626 30.9535 93.2711 30.0733 91.8862C29.7799 91.4174 29.5389 90.7356 29.0883 90.3734C28.9521 90.2562 28.7845 90.171 28.5959 90.1283C28.03 90.0218 27.307 90.2349 26.9717 90.7356C26.9507 90.7676 26.9298 90.7995 26.9088 90.8421C26.6364 91.3748 26.6364 91.9927 26.7517 92.5893C26.8041 92.8663 26.8879 93.1433 26.9822 93.399C27.7785 95.6362 29.3608 97.3515 31.4355 98.7151C32.1585 99.1839 32.9863 99.4608 33.6779 99.9722C34.3695 100.484 35.4487 101.666 35.4907 102.529C35.5221 103.115 35.3021 103.69 35.0925 104.234C34.7781 105.043 34.4533 105.853 34.1389 106.663" stroke="black" stroke-width="0.44" stroke-linecap="round" stroke-linejoin="round"/>
<path d="M26.7516 92.5906C26.102 91.5678 25.9448 90.5983 25.9238 89.9165C25.9238 89.6608 25.9343 89.3945 26.0077 89.1495C26.0391 89.0323 26.0915 88.9151 26.1544 88.8085C26.5525 88.18 27.3175 88.0202 27.9462 88.4037C28.533 88.7659 28.8368 89.5223 29.0988 90.364" stroke="black" stroke-width="0.44" stroke-linecap="round" stroke-linejoin="round"/>
<path d="M25.9555 89.1284C25.5154 87.5943 25.5258 86.6355 25.9974 85.9856C26.186 85.7192 26.4584 85.4849 26.7728 85.389C28.0092 85.0055 28.8161 86.9657 29.2038 87.8287C29.8534 89.2669 30.2935 90.1405 31.1004 91.5041C31.9072 92.8678 33.3742 93.9971 34.8516 94.6789" stroke="black" stroke-width="0.44" stroke-linecap="round" stroke-linejoin="round"/>
<path d="M26.7726 85.3885C26.5211 84.0568 26.9298 83.3111 27.7261 83.1087C28.5434 82.8956 29.1721 83.4496 29.6437 84.1634C29.9895 84.7067 30.2514 85.3246 30.4191 85.7827C31.1211 87.6045 31.6136 89.5434 32.7034 91.184C33.5102 92.3985 34.6943 93.3361 35.6164 93.9646" stroke="black" stroke-width="0.44" stroke-linecap="round" stroke-linejoin="round"/>
<path d="M29.6436 84.1635C29.9474 83.3858 30.7019 83.471 31.1315 83.6521C31.5611 83.8333 31.865 84.2168 32.1269 84.6003C33.2272 86.209 33.9397 88.0521 34.8409 89.7779C35.6058 91.2375 37.1985 93.5919 39.4409 94.9449C39.8495 95.1899 40.2792 95.403 40.7297 95.5735" stroke="black" stroke-width="0.44" stroke-linecap="round" stroke-linejoin="round"/>
<path d="M35.7842 96.1172C36.9682 96.2876 38.1733 96.4581 39.2944 96.8842C40.4156 97.3104 41.474 98.0242 42.1027 99.0682" stroke="black" stroke-width="0.44" stroke-linecap="round" stroke-linejoin="round"/>
<path d="M19.5107 133.318C19.5107 133.318 22.8534 127.224 23.6078 125.615C27.3905 117.497 32.5249 106.865 32.8183 106.258L46.6394 110.53C44.9 120.107 43.674 123.644 42.3432 129.994" stroke="black" stroke-width="0.44" stroke-linecap="round" stroke-linejoin="round"/>
<path d="M208.552 31.9494V38.6079C208.552 39.1299 210.48 39.5454 212.848 39.5454C215.217 39.5454 217.145 39.1299 217.145 38.6079V31.7363" stroke="black" stroke-width="0.44" stroke-linecap="round" stroke-linejoin="round"/>
<path d="M212.859 32.7593C221.227 32.7593 228.011 25.8622 228.011 17.3542C228.011 8.84628 221.227 1.94922 212.859 1.94922C204.491 1.94922 197.707 8.84628 197.707 17.3542C197.707 25.8622 204.491 32.7593 212.859 32.7593Z" fill="#FFBD09"/>
<path d="M217.061 30.1106C217.063 29.4222 215.206 28.8598 212.915 28.8545C210.623 28.8492 208.764 29.403 208.763 30.0914C208.761 30.7798 210.618 31.3422 212.909 31.3475C215.201 31.3527 217.06 30.799 217.061 30.1106Z" stroke="white" stroke-width="0.44" stroke-linecap="round" stroke-linejoin="round"/>
<path d="M210.815 29.7665C208.038 25.7288 205.807 20.988 206.142 16.0767C206.194 15.3203 206.309 14.5426 206.697 13.8927C207.085 13.2428 207.797 12.7528 208.541 12.8167C209.149 12.87 209.673 13.2748 210.092 13.7223C211.496 15.2137 212.188 17.3658 211.915 19.4112C211.894 19.5924 211.853 19.7841 211.727 19.9013C211.538 20.0824 211.213 20.0291 211.025 19.8587C210.836 19.6882 210.731 19.4325 210.648 19.1769C209.998 17.0994 210.26 14.3402 211.685 12.6356C212.775 11.3359 214.399 12.5077 214.944 13.7009C215.604 15.1605 216.463 19.2195 214.776 20.3061C214.546 20.4553 214.221 20.4766 214.001 20.3061C213.749 20.1037 213.728 19.7202 213.739 19.3899C213.843 17.5362 215.143 12.1988 217.899 12.838C220.654 13.4772 219.586 18.772 219.104 20.5725C218.223 23.8431 216.819 26.9753 214.954 29.7878" stroke="black" stroke-width="0.44" stroke-linecap="round" stroke-linejoin="round"/>
<path d="M208.552 36.9785C208.552 37.5005 210.48 37.916 212.848 37.916C215.217 37.916 217.145 37.5005 217.145 36.9785" stroke="black" stroke-width="0.44" stroke-linecap="round" stroke-linejoin="round"/>
<path d="M208.552 35.0508C208.552 35.5728 210.48 35.9883 212.848 35.9883C215.217 35.9883 217.145 35.5728 217.145 35.0508" stroke="black" stroke-width="0.44" stroke-linecap="round" stroke-linejoin="round"/>
<path d="M208.552 33.1211C208.552 33.6431 210.48 34.0586 212.848 34.0586C215.217 34.0586 217.145 33.6431 217.145 33.1211" stroke="black" stroke-width="0.44" stroke-linecap="round" stroke-linejoin="round"/>
<path d="M221.055 9.4124C221.748 8.59781 221.4 7.13895 220.28 6.15394C219.159 5.16893 217.689 5.03077 216.996 5.84536C216.304 6.65995 216.651 8.11882 217.772 9.10383C218.892 10.0888 220.362 10.227 221.055 9.4124Z" fill="white"/>
<path d="M47.2998 68.4488C49.6365 68.8536 51.6484 68.5021 54.006 66.936C54.8128 66.3927 55.5882 65.274 55.6616 64.2939C55.7245 63.3457 54.9071 62.0886 53.8383 62.3656C52.8429 62.6213 53.4821 63.7399 54.006 64.1022C56.0702 65.5297 59.4338 64.8586 61.1732 64.2833C63.6985 63.4523 65.7733 61.6838 67.4708 59.5957" stroke="black" stroke-width="0.44" stroke-linecap="round" stroke-linejoin="round"/>
<path d="M118.071 25.8768C120.313 25.9194 122.66 24.641 123.844 22.7127C124.096 22.3078 124.169 21.9137 124.054 21.4236C123.907 20.827 123.038 20.6992 123.121 21.658C123.279 23.6822 125.049 24.886 127.04 25.0138C129.031 25.1417 131.137 23.8313 132.175 21.9989C132.332 21.7219 132.5 21.4236 132.479 21.0933C132.458 20.7418 132.122 20.3902 131.766 20.5926C131.242 20.8909 131.619 21.7326 131.735 22.1374C131.923 22.7659 132.311 23.3412 132.845 23.7141C133.862 24.4386 135.224 24.5238 136.429 24.2148C137.508 23.9378 138.305 22.8938 138.64 21.8178" stroke="black" stroke-width="0.44" stroke-linecap="round" stroke-linejoin="round"/>
<path d="M95.3539 102.786H95.2805C94.2117 101.945 93.122 101.156 91.8017 100.89L91.7703 100.815C89.4545 101.806 87.4741 103.596 86.2691 105.822C86.0281 106.249 85.829 106.707 85.5042 107.08C85.1793 107.452 84.7183 107.729 84.2363 107.687C83.6914 107.644 83.2303 107.197 83.0417 106.675C82.895 106.259 82.8846 105.812 82.9369 105.364C82.6331 107.026 81.208 106.941 81.208 106.941C80.5898 106.962 80.0554 106.462 79.8458 105.876C79.762 105.641 79.7306 105.407 79.7201 105.162C79.1333 105.45 78.2636 105.162 77.9911 104.469C77.7501 103.851 77.8549 103.116 78.0435 102.509C78.0959 102.339 78.1483 102.168 78.2112 102.008L78.054 101.945C77.2576 101.891 77.2367 101.114 77.2891 100.41C77.3939 99.0041 78.3998 97.2676 79.5105 96.3727C81.187 95.0304 83.9429 94.2207 86.1853 94.274C87.4951 94.3166 88.8363 94.7108 90.0832 95.2434C91.7179 95.9253 93.3525 96.6497 94.7566 97.7364C96.1712 98.823 98.2983 100.506 98.5708 103.638C98.6022 104.81 98.6022 105.354 98.4765 106.291C98.4241 106.653 98.3193 107.016 98.1097 107.303C97.8897 107.591 97.5543 107.804 97.1876 107.783C96.9676 107.772 96.7685 107.676 96.5799 107.548C95.7206 106.941 95.4272 106.046 95.3958 104.97C95.3748 104.256 95.3958 103.511 95.3748 102.807L95.3539 102.786Z" fill="white"/>
<path d="M82.9681 96.6172C80.6209 97.7784 78.7767 99.9517 78.0118 102.498C77.8232 103.116 77.7289 103.851 77.9594 104.458C78.2213 105.151 79.1015 105.438 79.6883 105.151" stroke="black" stroke-width="0.44" stroke-linecap="round" stroke-linejoin="round"/>
<path d="M85.3256 96.9062C82.8318 98.6747 80.516 101.019 79.8245 104.033C79.6882 104.641 79.6149 105.291 79.8245 105.877C80.034 106.462 80.5789 106.963 81.1867 106.942C81.1867 106.942 82.6117 107.038 82.9156 105.365" stroke="black" stroke-width="0.44" stroke-linecap="round" stroke-linejoin="round"/>
<path d="M88.3332 98.3223C85.8394 99.8564 83.5236 102.115 82.9892 105.023C82.8845 105.567 82.853 106.153 83.0416 106.675C83.2302 107.197 83.6913 107.644 84.2362 107.687C84.7182 107.719 85.1792 107.442 85.5041 107.069C85.8289 106.696 86.0385 106.249 86.269 105.822C87.6836 103.223 90.125 101.241 92.9228 100.4" stroke="black" stroke-width="0.44" stroke-linecap="round" stroke-linejoin="round"/>
<path d="M98.5601 103.628C98.2876 100.485 96.1605 98.8017 94.7459 97.7256C93.3313 96.6496 91.6967 95.9252 90.0621 95.2327C88.8151 94.7107 87.4739 94.3165 86.1641 94.2632C83.9217 94.1993 81.1659 95.0196 79.4893 96.362C78.3682 97.2569 77.3727 98.9828 77.2574 100.4C77.2051 101.103 77.2365 101.881 78.0224 101.934" stroke="black" stroke-width="0.44" stroke-linecap="round" stroke-linejoin="round"/>
<path d="M95.2593 101.773C95.4374 102.711 95.3536 103.883 95.385 104.948C95.4164 106.014 95.7098 106.908 96.5691 107.526C96.7472 107.654 96.9568 107.75 97.1768 107.761C97.5331 107.782 97.8789 107.569 98.0884 107.281C98.298 106.994 98.4028 106.631 98.4552 106.269C98.5914 105.332 98.5809 104.788 98.56 103.617" stroke="black" stroke-width="0.44" stroke-linecap="round" stroke-linejoin="round"/>
<path d="M91.8013 100.891C93.1216 101.157 94.2113 101.956 95.2801 102.787" stroke="black" stroke-width="0.44" stroke-linecap="round" stroke-linejoin="round"/>
</g>
<defs>
<clipPath id="clip0_377_2195">
<rect width="228" height="168" fill="white"/>
</clipPath>
</defs>
</svg>
