<svg width="18" height="21" viewBox="0 0 18 21" fill="none" xmlns="http://www.w3.org/2000/svg">
<path d="M4.27778 14.5H10.8889V16.5H4.27778V14.5ZM4.27778 10.5H13.7222V12.5H4.27778V10.5ZM4.27778 6.5H13.7222V8.5H4.27778V6.5ZM15.6111 2.5H11.6633C11.2667 1.34 10.2278 0.5 9 0.5C7.77222 0.5 6.73333 1.34 6.33667 2.5H2.38889C2.25667 2.5 2.13389 2.51 2.01111 2.54C1.64278 2.62 1.31222 2.82 1.05722 3.09C0.887222 3.27 0.745556 3.49 0.651111 3.73C0.556667 3.96 0.5 4.22 0.5 4.5V18.5C0.5 18.77 0.556667 19.04 0.651111 19.28C0.745556 19.52 0.887222 19.73 1.05722 19.92C1.31222 20.19 1.64278 20.39 2.01111 20.47C2.13389 20.49 2.25667 20.5 2.38889 20.5H15.6111C16.65 20.5 17.5 19.6 17.5 18.5V4.5C17.5 3.4 16.65 2.5 15.6111 2.5ZM9 2.25C9.38722 2.25 9.70833 2.59 9.70833 3C9.70833 3.41 9.38722 3.75 9 3.75C8.61278 3.75 8.29167 3.41 8.29167 3C8.29167 2.59 8.61278 2.25 9 2.25ZM15.6111 18.5H2.38889V4.5H15.6111V18.5Z" fill="white" fill-opacity="0.9"/>
</svg>
