<svg width="186" height="36" viewBox="0 0 186 36" fill="none" xmlns="http://www.w3.org/2000/svg">
<g clip-path="url(#clip0_367_1127)">
<path d="M42.5462 0.745221C41.495 0.420943 40.4161 0.201621 39.3243 0.0902839L27.189 10.3772L2.62055 27.4896C3.01783 28.1537 3.45847 28.789 3.93943 29.3913L27.8558 10.5652L42.5462 0.745221ZM48.4393 3.93006C47.7238 3.33988 46.9646 2.80853 46.1686 2.34091L28.3391 16.8049L6.40568 31.938C7.16023 32.5758 7.96536 33.1469 8.81257 33.6455L27.6732 17.9917L48.4393 3.93006ZM50.6355 6.08713C50.0801 5.43992 49.4813 4.83386 48.8435 4.27343L28.4603 20.4266L9.13657 33.8322C9.97436 34.3007 10.8477 34.6979 11.7481 35.0199L28.6425 21.1747L50.6355 6.08713ZM38.5184 0.0254976C38.2001 0.00741905 37.8814 -0.00100554 37.5627 0.00023556C36.3063 0.00023556 35.0812 0.138707 33.8994 0.399511L27.4317 6.50745L1.27493 24.7653C1.58228 25.5428 1.94081 26.2977 2.34798 27.0246L27.2525 7.25735L38.5184 0.0254976ZM17.436 0C7.80727 0 1.31568e-06 8.05683 1.31568e-06 18.0001C-0.00077354 20.0602 0.340714 22.1052 1.00961 24.0461L27.0723 2.99819C24.3131 1.10379 20.999 0 17.436 0ZM45.7769 2.11847C44.9561 1.66696 44.1022 1.28265 43.2232 0.969067L29.0655 12.6248L4.24349 29.7667C4.84968 30.491 5.5108 31.1644 6.22057 31.7804L27.3127 14.6202L45.7769 2.11847ZM27.6789 32.8236C30.5833 34.8962 34.0312 36.0043 37.562 36C47.1918 36 55 27.9399 55 17.9996C55.0022 15.8349 54.6253 13.6876 53.8875 11.6613L27.6789 32.8236ZM53.7094 11.1919C53.377 10.3553 52.9843 9.54563 52.5344 8.76977L29.1869 27.4166L16.2918 35.9612C16.6688 35.9841 17.0515 35.9993 17.4364 35.9993C18.5106 35.9993 19.5642 35.894 20.5865 35.7032L27.3723 29.4759L53.7094 11.1919ZM52.3692 8.48886C51.9339 7.76888 51.4503 7.08117 50.9221 6.43073L29.8522 23.1095L12.1264 35.1462C13.2177 35.5076 14.3413 35.7552 15.4804 35.8854L28.1592 25.1688L52.3692 8.48886Z" fill="#BCBEC0"/>
<path d="M43.3488 19H44.7409V13.9799H43.3486L43.3488 19ZM46.0088 12.7127H51V11.3132H46.0088V12.7127ZM37 12.7127H41.9943V11.3132H37.0002L37 12.7127ZM43.3488 10.0181H44.7409V5H43.3486L43.3488 10.0181Z" fill="#F5821F"/>
<path d="M10.8343 27H8V12H10.8343V18.1007L16.01 12H19.6787L14.1411 18.1392L20 27H16.3526L12.1569 20.4187L10.8345 21.9229L10.8343 27Z" fill="#ED1C24"/>
<path d="M29.6698 12H27.0496V17.2251H27.0132C26.6013 16.5264 25.8158 15.5226 24.132 15.5226C21.9439 15.5226 20 17.368 20 21.1404C20 24.1306 21.2335 27 24.1896 27C25.2736 27 26.4323 26.5696 27.0678 25.3396H27.1063V26.7127H29.6698V12ZM22.6946 21.3445C22.6946 19.6232 23.2526 18.0018 24.9193 18.0018C26.7135 18.0018 27.162 19.7673 27.162 21.5085C27.162 23.1268 26.5071 24.6419 24.8444 24.6419C23.1604 24.6419 22.6946 22.6345 22.6946 21.3445ZM40.9998 26.7132H38.3821V20.0938C38.3821 19.2943 38.3437 17.9421 36.6798 17.9421C35.5203 17.9421 34.6215 18.8008 34.6215 20.4653V26.7132H32.0044V15.8114H34.5102V17.4084H34.5486C34.9027 16.7521 35.6515 15.5221 37.5399 15.5221C39.485 15.5221 41 16.7742 41 19.1721L40.9998 26.7132Z" fill="#ED1C24"/>
<path d="M80.8984 8.7373V26.5107H78.5352V8.7373H80.8984ZM65.1562 21.3154C67.7734 19.7041 68.75 16.5205 68.75 13.5029V12.5459H65.8398V10.5537H73.8477V12.5459H71.1523V13.5029C71.1426 16.4521 72.0703 19.4404 74.668 20.9248L73.2031 22.7607C71.6113 21.8232 70.5762 20.2412 69.9707 18.3271C69.3652 20.3975 68.291 22.1553 66.6602 23.1514L65.1562 21.3154ZM72.5781 16.8428V14.8311H74.9219V9.03027H77.2656V25.6904H74.9219V16.8428H72.5781ZM96.9141 8.7373V13.835H99.3164V15.9053H96.9141V21.6865H94.4141V8.7373H96.9141ZM82.9297 14.4014C82.9199 11.7549 85.0781 9.87988 87.8125 9.88965C90.5371 9.87988 92.6562 11.7549 92.6562 14.4014C92.6562 17.0088 90.5371 18.9131 87.8125 18.9131C85.0781 18.9131 82.9199 17.0088 82.9297 14.4014ZM85.3906 26.1982V20.3193H87.8711V24.2061H97.5586V26.1982H85.3906ZM85.3906 14.4014C85.3711 15.8467 86.4551 16.7451 87.8125 16.7451C89.1797 16.7451 90.2246 15.8467 90.2344 14.4014C90.2246 12.917 89.1797 12.0479 87.8125 12.0576C86.4551 12.0479 85.3711 12.917 85.3906 14.4014ZM110.059 10.0264V11.1396C110.059 12.3701 110.059 14.1475 109.648 16.3545L107.207 16.1201C107.529 14.4209 107.607 13.1221 107.627 12.0576H100.918V10.0264H110.059ZM99.8633 17.6436C100.859 17.6436 101.982 17.6436 103.164 17.6143V14.1279H105.645V17.5361C107.422 17.458 109.229 17.3213 110.898 17.0771L111.035 18.874C107.334 19.5576 103.174 19.626 100.078 19.6357L99.8633 17.6436ZM102.48 26.1982V20.8467H104.98V24.2061H114.961V26.1982H102.48ZM111.855 22.0381V8.7373H114.414V14.1475H116.562V16.2373H114.414V22.0381H111.855ZM132.285 8.7373V26.5498H129.805V8.7373H132.285ZM118.32 12.2334V10.2217H126.777V17.0771H120.918V20.3389C123.633 20.3193 125.928 20.1826 128.535 19.7529L128.75 21.7646C125.83 22.2822 123.184 22.3896 119.941 22.3896H118.34V15.1045H124.238V12.2334H118.32ZM141.582 12.7607C141.572 16.0225 143.057 19.2939 146.074 20.5732L144.609 22.5654C142.578 21.6475 141.172 19.8701 140.361 17.6729C139.561 20.0752 138.105 22.0088 135.938 22.9951L134.434 20.9248C137.539 19.6162 139.053 16.208 139.062 12.7607V10.1045H141.582V12.7607ZM147.031 26.5498V8.7373H149.551V26.5498H147.031ZM161.309 11.0811C161.299 13.6885 163.613 16.4717 167.637 17.1553L166.543 19.2256C163.438 18.6104 161.143 16.8623 159.99 14.5869C158.818 16.8428 156.514 18.6006 153.438 19.2256L152.363 17.1553C156.318 16.4521 158.633 13.6592 158.652 11.0811V9.79199H161.309V11.0811ZM151.953 24.3232V22.2725H168.223V24.3232H151.953ZM176.719 9.79199V11.8037H172.324V13.21H176.055V15.124H172.324V16.6768C174.258 16.6475 175.674 16.5596 177.324 16.2959L177.578 18.2295C175.537 18.5811 173.838 18.6494 171.152 18.6396H169.941V9.79199H176.719ZM172.383 26.3154V20.0459H184.512V26.3154H172.383ZM174.863 24.3232H182.051V21.999H174.863V24.3232ZM176.816 15.0068V13.0146H178.613V9.01074H180.977V19.2256H178.613V15.0068H176.816ZM182.148 19.3428V8.7373H184.512V19.3428H182.148Z" fill="#383A41"/>
</g>
<defs>
<clipPath id="clip0_367_1127">
<rect width="186" height="36" fill="white"/>
</clipPath>
</defs>
</svg>
