<svg width="16" height="16" viewBox="0 0 16 16" fill="none" xmlns="http://www.w3.org/2000/svg">
<path d="M10.267 1.54211C11.477 0.370107 13.5 1.23161 13.5 2.92361C13.5 3.13561 13.4385 3.33361 13.332 3.50011H13.8305C13.9842 3.50017 14.1364 3.53052 14.2783 3.58941C14.4203 3.6483 14.5492 3.73458 14.6578 3.84332C14.7665 3.95207 14.8526 4.08114 14.9113 4.22318C14.97 4.36521 15.0001 4.51742 15 4.67111V6.82911C15.0001 7.11014 14.8992 7.38185 14.7156 7.59463C14.532 7.80741 14.278 7.94707 14 7.98811V13.9571C14 14.8101 13.3015 15.5001 12.444 15.5001H3.556C2.7 15.5001 2 14.8171 2 13.9571V7.98811C1.72198 7.94707 1.46799 7.80741 1.2844 7.59463C1.10081 7.38185 0.999868 7.11014 1 6.82911V4.67111C0.999869 4.51746 1.03 4.36529 1.08868 4.22329C1.14736 4.08129 1.23343 3.95224 1.34198 3.8435C1.45053 3.73476 1.57944 3.64847 1.72134 3.58955C1.86324 3.53063 2.01535 3.50024 2.169 3.50011H2.6655C2.55686 3.32749 2.49947 3.12757 2.5 2.92361C2.5 1.23161 4.5225 0.365608 5.7335 1.54211L6.6285 2.41011C6.74385 2.14097 6.93537 1.91144 7.1795 1.74975C7.42362 1.58807 7.70969 1.50129 8.0025 1.50011C8.615 1.50011 9.1415 1.87261 9.3735 2.40811L10.267 1.54211ZM3 8.00011V13.9571C3 14.2536 3.241 14.5001 3.556 14.5001H6.5V8.00011H3ZM9.5 8.00011V14.5001H12.444C12.5897 14.5017 12.7301 14.4454 12.8343 14.3436C12.9386 14.2418 12.9982 14.1028 13 13.9571V8.00011H9.5ZM14 6.82911V4.67111C14.0001 4.64878 13.9959 4.62665 13.9874 4.60597C13.979 4.5853 13.9666 4.56648 13.9509 4.55061C13.9352 4.53473 13.9166 4.52209 13.896 4.51343C13.8754 4.50477 13.8533 4.50024 13.831 4.50011H9.5V7.00011H13.831C13.8533 6.99998 13.8754 6.99545 13.896 6.98678C13.9166 6.97812 13.9352 6.96549 13.9509 6.94961C13.9666 6.93373 13.979 6.91492 13.9874 6.89424C13.9959 6.87356 14.0001 6.85143 14 6.82911ZM6.5 4.50011H2.169C2.14668 4.50024 2.1246 4.50477 2.10402 4.51343C2.08344 4.52209 2.06478 4.53473 2.04908 4.55061C2.03339 4.56648 2.02098 4.5853 2.01256 4.60597C2.00414 4.62665 1.99987 4.64878 2 4.67111V6.82911C1.99987 6.85143 2.00414 6.87356 2.01256 6.89424C2.02098 6.91492 2.03339 6.93373 2.04908 6.94961C2.06478 6.96549 2.08344 6.97812 2.10402 6.98678C2.1246 6.99545 2.14668 6.99998 2.169 7.00011H6.5V4.50011Z" fill="#8591A3"/>
</svg>
