<svg width="30" height="30" viewBox="0 0 30 30" fill="none" xmlns="http://www.w3.org/2000/svg">
<path d="M15.0002 25.2293C21.4435 25.2293 26.6668 20.006 26.6668 13.5627C26.6668 7.11934 21.4435 1.896 15.0002 1.896C8.55684 1.896 3.3335 7.11934 3.3335 13.5627C3.3335 20.006 8.55684 25.2293 15.0002 25.2293Z" fill="#FFF59D"/>
<path d="M22.5834 13.5623C22.5834 9.07067 18.7334 5.51233 14.125 6.03733C10.625 6.44567 7.82504 9.24567 7.47504 12.7457C7.18337 15.429 8.2917 17.8207 10.1584 19.3373C10.975 20.0373 11.5 21.029 11.5 22.1373V22.3123H18.5V22.254C18.5 21.204 18.9667 20.154 19.7834 19.454C21.475 18.054 22.5834 15.954 22.5834 13.5623Z" fill="#FBC02D"/>
<path d="M18.8501 12.5125L17.1001 11.3458C16.9251 11.2291 16.6334 11.2291 16.4584 11.3458L15.0001 12.2791L13.6001 11.3458C13.4251 11.2291 13.1334 11.2291 12.9584 11.3458L11.2084 12.5125C11.0918 12.6291 10.9751 12.7458 10.9751 12.9208C10.9751 13.0958 10.9751 13.2708 11.0918 13.3875L13.3084 16.1291V22.3125H14.4751V15.8958C14.4751 15.7791 14.4168 15.6625 14.3584 15.5458L12.4334 13.1541L13.3084 12.5708L14.7084 13.5041C14.8834 13.6208 15.1751 13.6208 15.3501 13.5041L16.7501 12.5708L17.6251 13.1541L15.7001 15.5458C15.6418 15.6625 15.5834 15.7791 15.5834 15.8958V22.3125H16.7501V16.1291L18.9668 13.3875C19.0834 13.2708 19.1418 13.0958 19.0834 12.9208C19.0251 12.7458 18.9668 12.5708 18.8501 12.5125Z" fill="#FFF59D"/>
<path d="M15 28.146C15.9665 28.146 16.75 27.3625 16.75 26.396C16.75 25.4295 15.9665 24.646 15 24.646C14.0335 24.646 13.25 25.4295 13.25 26.396C13.25 27.3625 14.0335 28.146 15 28.146Z" fill="#5C6BC0"/>
<path d="M16.1667 26.979H13.8333C12.55 26.979 11.5 25.929 11.5 24.6457V21.729H18.5V24.6457C18.5 25.929 17.45 26.979 16.1667 26.979Z" fill="#9FA8DA"/>
<path d="M18.5 24.6453L11.7333 25.5787C11.9083 25.987 12.2583 26.3953 12.6667 26.6287L18.15 25.8703C18.3833 25.5203 18.5 25.112 18.5 24.6453ZM11.5 23.3037V24.4703L18.5 23.4787V22.312L11.5 23.3037Z" fill="#5C6BC0"/>
</svg>
