<svg width="30" height="31" viewBox="0 0 30 31" fill="none" xmlns="http://www.w3.org/2000/svg">
<path d="M25 14.646H20L17.5 17.146V8.396C17.5 7.021 18.625 5.896 20 5.896H25C26.375 5.896 27.5 7.021 27.5 8.396V12.146C27.5 13.521 26.375 14.646 25 14.646Z" fill="#2196F3"/>
<path d="M10.625 17.771C13.3864 17.771 15.625 15.5324 15.625 12.771C15.625 10.0096 13.3864 7.771 10.625 7.771C7.86358 7.771 5.625 10.0096 5.625 12.771C5.625 15.5324 7.86358 17.771 10.625 17.771Z" fill="#FFA726"/>
<path d="M18.75 23.8335C18.75 23.8335 16.5 19.646 10.625 19.646C4.75 19.646 2.5 23.8335 2.5 23.8335V25.896H18.75V23.8335Z" fill="#607D8B"/>
</svg>
