<svg width="16" height="16" viewBox="0 0 16 16" fill="none" xmlns="http://www.w3.org/2000/svg">
<g filter="url(#filter0_i_933_27631)">
<path d="M8.03004 4.02097H12.429C12.7134 4.019 12.9855 3.90477 13.1861 3.70316C13.3867 3.50155 13.4995 3.22887 13.5 2.94447C13.5 1.25247 11.4775 0.390974 10.267 1.56247L8.02954 3.73197L8.03004 4.02097Z" fill="#DE2236"/>
<path d="M8.03004 4.02097H12.429C12.7134 4.019 12.9855 3.90477 13.1861 3.70316C13.3867 3.50155 13.4995 3.22887 13.5 2.94447C13.5 1.25247 11.4775 0.390974 10.267 1.56247L8.02954 3.73197L8.03004 4.02097Z" fill="url(#paint0_linear_933_27631)"/>
</g>
<g filter="url(#filter1_i_933_27631)">
<path d="M8.03006 4.02097H3.63006C3.34584 4.01873 3.074 3.90439 2.87364 3.70281C2.67327 3.50123 2.56058 3.2287 2.56006 2.94447C2.56006 1.25247 4.58256 0.390974 5.79306 1.56247L8.03006 3.73197V4.02097Z" fill="url(#paint1_linear_933_27631)"/>
<path d="M8.03006 4.02097H3.63006C3.34584 4.01873 3.074 3.90439 2.87364 3.70281C2.67327 3.50123 2.56058 3.2287 2.56006 2.94447C2.56006 1.25247 4.58256 0.390974 5.79306 1.56247L8.03006 3.73197V4.02097Z" fill="url(#paint2_linear_933_27631)"/>
<path d="M8.03006 4.02097H3.63006C3.34584 4.01873 3.074 3.90439 2.87364 3.70281C2.67327 3.50123 2.56058 3.2287 2.56006 2.94447C2.56006 1.25247 4.58256 0.390974 5.79306 1.56247L8.03006 3.73197V4.02097Z" fill="url(#paint3_radial_933_27631)"/>
</g>
<path d="M12.444 15.021H3.556C3.41803 15.0222 3.28117 14.9962 3.1533 14.9444C3.02543 14.8925 2.90907 14.8159 2.81093 14.7189C2.71278 14.6219 2.63478 14.5065 2.58142 14.3792C2.52806 14.252 2.50039 14.1155 2.5 13.9775V7.52148H13.5V13.9785C13.5 14.5515 13.03 15.021 12.444 15.021Z" fill="url(#paint4_linear_933_27631)"/>
<path d="M12.444 15.021H3.556C3.41803 15.0222 3.28117 14.9962 3.1533 14.9444C3.02543 14.8925 2.90907 14.8159 2.81093 14.7189C2.71278 14.6219 2.63478 14.5065 2.58142 14.3792C2.52806 14.252 2.50039 14.1155 2.5 13.9775V7.52148H13.5V13.9785C13.5 14.5515 13.03 15.021 12.444 15.021Z" fill="url(#paint5_linear_933_27631)"/>
<path d="M12.444 15.021H3.556C3.41803 15.0222 3.28117 14.9962 3.1533 14.9444C3.02543 14.8925 2.90907 14.8159 2.81093 14.7189C2.71278 14.6219 2.63478 14.5065 2.58142 14.3792C2.52806 14.252 2.50039 14.1155 2.5 13.9775V7.52148H13.5V13.9785C13.5 14.5515 13.03 15.021 12.444 15.021Z" fill="url(#paint6_radial_933_27631)"/>
<path d="M12.444 15.021H3.556C3.41803 15.0222 3.28117 14.9962 3.1533 14.9444C3.02543 14.8925 2.90907 14.8159 2.81093 14.7189C2.71278 14.6219 2.63478 14.5065 2.58142 14.3792C2.52806 14.252 2.50039 14.1155 2.5 13.9775V7.52148H13.5V13.9785C13.5 14.5515 13.03 15.021 12.444 15.021Z" fill="url(#paint7_linear_933_27631)"/>
<path d="M12.444 15.021H3.556C3.41803 15.0222 3.28117 14.9962 3.1533 14.9444C3.02543 14.8925 2.90907 14.8159 2.81093 14.7189C2.71278 14.6219 2.63478 14.5065 2.58142 14.3792C2.52806 14.252 2.50039 14.1155 2.5 13.9775V7.52148H13.5V13.9785C13.5 14.5515 13.03 15.021 12.444 15.021Z" fill="url(#paint8_linear_933_27631)"/>
<path d="M12.444 15.021H3.556C3.41803 15.0222 3.28117 14.9962 3.1533 14.9444C3.02543 14.8925 2.90907 14.8159 2.81093 14.7189C2.71278 14.6219 2.63478 14.5065 2.58142 14.3792C2.52806 14.252 2.50039 14.1155 2.5 13.9775V7.52148H13.5V13.9785C13.5 14.5515 13.03 15.021 12.444 15.021Z" fill="url(#paint9_linear_933_27631)"/>
<path d="M13.831 4.021H2.1685C1.8 4.021 1.5 4.321 1.5 4.692V6.85C1.5 7.2205 1.8 7.521 2.169 7.521H13.831C14.2 7.521 14.5 7.22 14.5 6.85V4.692C14.5 4.3215 14.2 4.021 13.831 4.021Z" fill="url(#paint10_linear_933_27631)"/>
<path d="M13.831 4.021H2.1685C1.8 4.021 1.5 4.321 1.5 4.692V6.85C1.5 7.2205 1.8 7.521 2.169 7.521H13.831C14.2 7.521 14.5 7.22 14.5 6.85V4.692C14.5 4.3215 14.2 4.021 13.831 4.021Z" fill="url(#paint11_linear_933_27631)"/>
<path d="M13.831 4.021H2.1685C1.8 4.021 1.5 4.321 1.5 4.692V6.85C1.5 7.2205 1.8 7.521 2.169 7.521H13.831C14.2 7.521 14.5 7.22 14.5 6.85V4.692C14.5 4.3215 14.2 4.021 13.831 4.021Z" fill="url(#paint12_linear_933_27631)"/>
<path d="M13.831 4.021H2.1685C1.8 4.021 1.5 4.321 1.5 4.692V6.85C1.5 7.2205 1.8 7.521 2.169 7.521H13.831C14.2 7.521 14.5 7.22 14.5 6.85V4.692C14.5 4.3215 14.2 4.021 13.831 4.021Z" fill="url(#paint13_radial_933_27631)"/>
<path d="M13.831 4.021H2.1685C1.8 4.021 1.5 4.321 1.5 4.692V6.85C1.5 7.2205 1.8 7.521 2.169 7.521H13.831C14.2 7.521 14.5 7.22 14.5 6.85V4.692C14.5 4.3215 14.2 4.021 13.831 4.021Z" fill="url(#paint14_linear_933_27631)"/>
<path d="M13.831 4.021H2.1685C1.8 4.021 1.5 4.321 1.5 4.692V6.85C1.5 7.2205 1.8 7.521 2.169 7.521H13.831C14.2 7.521 14.5 7.22 14.5 6.85V4.692C14.5 4.3215 14.2 4.021 13.831 4.021Z" fill="url(#paint15_radial_933_27631)"/>
<g filter="url(#filter2_ii_933_27631)">
<path d="M8.0025 1.521C7.1725 1.521 6.5 2.205 6.5 3.051V15.021H9.5V3.051C9.505 2.2055 8.833 1.521 8.0025 1.521Z" fill="url(#paint16_linear_933_27631)"/>
<path d="M8.0025 1.521C7.1725 1.521 6.5 2.205 6.5 3.051V15.021H9.5V3.051C9.505 2.2055 8.833 1.521 8.0025 1.521Z" fill="url(#paint17_linear_933_27631)"/>
</g>
<g filter="url(#filter3_f_933_27631)">
<path d="M12.0061 1.521C12.3966 1.625 13.1561 2.0805 13.0686 3.068" stroke="#FB5157" stroke-width="0.1875" stroke-linecap="round"/>
</g>
<g filter="url(#filter4_f_933_27631)">
<path d="M4.83398 1.43606C4.91148 1.42956 5.13998 1.48206 5.43398 1.74556C5.72798 2.00856 6.14998 2.44856 6.32398 2.63556" stroke="#FB5157" stroke-width="0.1875" stroke-linecap="round"/>
</g>
<defs>
<filter id="filter0_i_933_27631" x="8.02954" y="1.02295" width="5.58296" height="3.11055" filterUnits="userSpaceOnUse" color-interpolation-filters="sRGB">
<feFlood flood-opacity="0" result="BackgroundImageFix"/>
<feBlend mode="normal" in="SourceGraphic" in2="BackgroundImageFix" result="shape"/>
<feColorMatrix in="SourceAlpha" type="matrix" values="0 0 0 0 0 0 0 0 0 0 0 0 0 0 0 0 0 0 127 0" result="hardAlpha"/>
<feOffset dx="0.1125" dy="0.1125"/>
<feGaussianBlur stdDeviation="0.140625"/>
<feComposite in2="hardAlpha" operator="arithmetic" k2="-1" k3="1"/>
<feColorMatrix type="matrix" values="0 0 0 0 0.698039 0 0 0 0 0.235294 0 0 0 0 0.243137 0 0 0 1 0"/>
<feBlend mode="normal" in2="shape" result="effect1_innerShadow_933_27631"/>
</filter>
<filter id="filter1_i_933_27631" x="2.56006" y="0.910449" width="5.65747" height="3.11055" filterUnits="userSpaceOnUse" color-interpolation-filters="sRGB">
<feFlood flood-opacity="0" result="BackgroundImageFix"/>
<feBlend mode="normal" in="SourceGraphic" in2="BackgroundImageFix" result="shape"/>
<feColorMatrix in="SourceAlpha" type="matrix" values="0 0 0 0 0 0 0 0 0 0 0 0 0 0 0 0 0 0 127 0" result="hardAlpha"/>
<feOffset dx="0.1875" dy="-0.1125"/>
<feGaussianBlur stdDeviation="0.140625"/>
<feComposite in2="hardAlpha" operator="arithmetic" k2="-1" k3="1"/>
<feColorMatrix type="matrix" values="0 0 0 0 0.698039 0 0 0 0 0.235294 0 0 0 0 0.243137 0 0 0 1 0"/>
<feBlend mode="normal" in2="shape" result="effect1_innerShadow_933_27631"/>
</filter>
<filter id="filter2_ii_933_27631" x="6.425" y="1.521" width="3.15" height="13.5" filterUnits="userSpaceOnUse" color-interpolation-filters="sRGB">
<feFlood flood-opacity="0" result="BackgroundImageFix"/>
<feBlend mode="normal" in="SourceGraphic" in2="BackgroundImageFix" result="shape"/>
<feColorMatrix in="SourceAlpha" type="matrix" values="0 0 0 0 0 0 0 0 0 0 0 0 0 0 0 0 0 0 127 0" result="hardAlpha"/>
<feOffset dx="0.075"/>
<feGaussianBlur stdDeviation="0.0375"/>
<feComposite in2="hardAlpha" operator="arithmetic" k2="-1" k3="1"/>
<feColorMatrix type="matrix" values="0 0 0 0 0.729412 0 0 0 0 0.101961 0 0 0 0 0.152941 0 0 0 1 0"/>
<feBlend mode="normal" in2="shape" result="effect1_innerShadow_933_27631"/>
<feColorMatrix in="SourceAlpha" type="matrix" values="0 0 0 0 0 0 0 0 0 0 0 0 0 0 0 0 0 0 127 0" result="hardAlpha"/>
<feOffset dx="-0.075"/>
<feGaussianBlur stdDeviation="0.0375"/>
<feComposite in2="hardAlpha" operator="arithmetic" k2="-1" k3="1"/>
<feColorMatrix type="matrix" values="0 0 0 0 0.894118 0 0 0 0 0.301961 0 0 0 0 0.341176 0 0 0 1 0"/>
<feBlend mode="normal" in2="effect1_innerShadow_933_27631" result="effect2_innerShadow_933_27631"/>
</filter>
<filter id="filter3_f_933_27631" x="11.5374" y="1.05225" width="2.00708" height="2.48462" filterUnits="userSpaceOnUse" color-interpolation-filters="sRGB">
<feFlood flood-opacity="0" result="BackgroundImageFix"/>
<feBlend mode="normal" in="SourceGraphic" in2="BackgroundImageFix" result="shape"/>
<feGaussianBlur stdDeviation="0.1875" result="effect1_foregroundBlur_933_27631"/>
</filter>
<filter id="filter4_f_933_27631" x="4.36523" y="0.966797" width="2.42749" height="2.13745" filterUnits="userSpaceOnUse" color-interpolation-filters="sRGB">
<feFlood flood-opacity="0" result="BackgroundImageFix"/>
<feBlend mode="normal" in="SourceGraphic" in2="BackgroundImageFix" result="shape"/>
<feGaussianBlur stdDeviation="0.1875" result="effect1_foregroundBlur_933_27631"/>
</filter>
<linearGradient id="paint0_linear_933_27631" x1="11.355" y1="4.26097" x2="11.355" y2="3.33197" gradientUnits="userSpaceOnUse">
<stop stop-color="#CE280A"/>
<stop offset="1" stop-color="#CE280A" stop-opacity="0"/>
</linearGradient>
<linearGradient id="paint1_linear_933_27631" x1="6.16906" y1="1.66797" x2="5.29456" y2="4.02097" gradientUnits="userSpaceOnUse">
<stop stop-color="#DF2332"/>
<stop offset="1" stop-color="#D9213B"/>
</linearGradient>
<linearGradient id="paint2_linear_933_27631" x1="4.70456" y1="4.26097" x2="4.70456" y2="3.33197" gradientUnits="userSpaceOnUse">
<stop stop-color="#CE280A"/>
<stop offset="1" stop-color="#CE280A" stop-opacity="0"/>
</linearGradient>
<radialGradient id="paint3_radial_933_27631" cx="0" cy="0" r="1" gradientUnits="userSpaceOnUse" gradientTransform="translate(6.76906 4.16397) rotate(-173.603) scale(1.28509 3.38004)">
<stop offset="0.151" stop-color="#BD1123"/>
<stop offset="1" stop-color="#BD1123" stop-opacity="0"/>
</radialGradient>
<linearGradient id="paint4_linear_933_27631" x1="2.5" y1="12.302" x2="13.5" y2="12.302" gradientUnits="userSpaceOnUse">
<stop stop-color="#F1A738"/>
<stop offset="1" stop-color="#FAD42C"/>
</linearGradient>
<linearGradient id="paint5_linear_933_27631" x1="8" y1="6.52098" x2="8" y2="8.14598" gradientUnits="userSpaceOnUse">
<stop stop-color="#C97525"/>
<stop offset="1" stop-color="#C97525" stop-opacity="0"/>
</linearGradient>
<radialGradient id="paint6_radial_933_27631" cx="0" cy="0" r="1" gradientUnits="userSpaceOnUse" gradientTransform="translate(6.8185 10.677) rotate(180) scale(1.1875 9.34375)">
<stop stop-color="#C87C28"/>
<stop offset="1" stop-color="#C87C28" stop-opacity="0"/>
</radialGradient>
<linearGradient id="paint7_linear_933_27631" x1="2.2245" y1="11.271" x2="3.8495" y2="11.271" gradientUnits="userSpaceOnUse">
<stop stop-color="#C2773F"/>
<stop offset="1" stop-color="#C2773F" stop-opacity="0"/>
</linearGradient>
<linearGradient id="paint8_linear_933_27631" x1="8.2565" y1="15.33" x2="8.2565" y2="14.4795" gradientUnits="userSpaceOnUse">
<stop stop-color="#E68370"/>
<stop offset="1" stop-color="#E68370" stop-opacity="0"/>
</linearGradient>
<linearGradient id="paint9_linear_933_27631" x1="13.8495" y1="11.927" x2="12.506" y2="11.927" gradientUnits="userSpaceOnUse">
<stop stop-color="#FFF733"/>
<stop offset="1" stop-color="#FFF733" stop-opacity="0"/>
</linearGradient>
<linearGradient id="paint10_linear_933_27631" x1="14.5" y1="6.0145" x2="1.5" y2="5.981" gradientUnits="userSpaceOnUse">
<stop stop-color="#F6D729"/>
<stop offset="1" stop-color="#F39B3A"/>
</linearGradient>
<linearGradient id="paint11_linear_933_27631" x1="14.5" y1="5.771" x2="13.6365" y2="5.771" gradientUnits="userSpaceOnUse">
<stop stop-color="#FFF850"/>
<stop offset="1" stop-color="#FFF850" stop-opacity="0"/>
</linearGradient>
<linearGradient id="paint12_linear_933_27631" x1="8" y1="7.6805" x2="8" y2="7.0925" gradientUnits="userSpaceOnUse">
<stop stop-color="#E8AF21"/>
<stop offset="1" stop-color="#E8AF21" stop-opacity="0"/>
</linearGradient>
<radialGradient id="paint13_radial_933_27631" cx="0" cy="0" r="1" gradientUnits="userSpaceOnUse" gradientTransform="translate(3.0765 7.883) rotate(-90) scale(0.91206 6.55245)">
<stop stop-color="#DE7550"/>
<stop offset="1" stop-color="#DE7550" stop-opacity="0"/>
</radialGradient>
<linearGradient id="paint14_linear_933_27631" x1="1.3595" y1="5.9825" x2="2.5155" y2="5.9825" gradientUnits="userSpaceOnUse">
<stop stop-color="#BE7841"/>
<stop offset="1" stop-color="#BE7841" stop-opacity="0"/>
</linearGradient>
<radialGradient id="paint15_radial_933_27631" cx="0" cy="0" r="1" gradientUnits="userSpaceOnUse" gradientTransform="translate(6.975 6.2865) rotate(180) scale(1.26563 8.7656)">
<stop offset="0.189" stop-color="#C57E10"/>
<stop offset="1" stop-color="#C57E10" stop-opacity="0"/>
</radialGradient>
<linearGradient id="paint16_linear_933_27631" x1="8.004" y1="1.522" x2="8.004" y2="15.0205" gradientUnits="userSpaceOnUse">
<stop stop-color="#D12136"/>
<stop offset="1" stop-color="#B6246E"/>
</linearGradient>
<linearGradient id="paint17_linear_933_27631" x1="8" y1="15.1485" x2="8" y2="14.4265" gradientUnits="userSpaceOnUse">
<stop stop-color="#B3368C"/>
<stop offset="1" stop-color="#B3368C" stop-opacity="0"/>
</linearGradient>
</defs>
</svg>
