<svg width="30" height="31" viewBox="0 0 30 31" fill="none" xmlns="http://www.w3.org/2000/svg">
<path d="M24.0999 17.8466C24.1582 17.4382 24.2166 17.0299 24.2166 16.5632C24.2166 16.0966 24.1582 15.6882 24.0999 15.2799L26.7249 13.4132C26.9582 13.2382 27.0749 12.8882 26.8999 12.5966L24.3332 8.27992C24.1582 7.98825 23.8666 7.87158 23.5749 8.04658L20.6582 9.38825C19.9582 8.86325 19.2582 8.45492 18.4416 8.10492L18.1499 4.89658C18.0916 4.60492 17.8582 4.37158 17.5666 4.37158H12.5499C12.2582 4.37158 11.9666 4.60492 11.9666 4.89658L11.6749 8.10492C10.8582 8.45492 10.0999 8.86325 9.45823 9.38825L6.54157 8.04658C6.2499 7.92992 5.8999 8.04658 5.78323 8.27992L3.2749 12.5966C3.0999 12.8882 3.21657 13.2382 3.4499 13.4132L6.0749 15.2799C6.01657 15.6882 5.95823 16.0966 5.95823 16.5632C5.95823 17.0299 6.01657 17.4382 6.0749 17.8466L3.33323 19.7132C3.0999 19.8882 2.98323 20.2382 3.15823 20.5299L5.66657 24.8466C5.84157 25.1382 6.13323 25.2549 6.4249 25.0799L9.34157 23.7382C10.0416 24.2632 10.7416 24.6716 11.5582 25.0216L11.8499 28.2299C11.9082 28.5216 12.1416 28.7549 12.4332 28.7549H17.4499C17.7416 28.7549 18.0332 28.5216 18.0332 28.2299L18.3249 25.0216C19.1416 24.6716 19.8999 24.2632 20.5416 23.7382L23.4582 25.0799C23.7499 25.1966 24.0999 25.0799 24.2166 24.8466L26.7249 20.5299C26.8999 20.2382 26.7832 19.8882 26.5499 19.7132L24.0999 17.8466ZM14.9999 22.3966C11.7916 22.3966 9.16657 19.7716 9.16657 16.5632C9.16657 13.3549 11.7916 10.7299 14.9999 10.7299C18.2082 10.7299 20.8332 13.3549 20.8332 16.5632C20.8332 19.7716 18.2082 22.3966 14.9999 22.3966Z" fill="#497991"/>
<path d="M15 9.56348C11.15 9.56348 8 12.7135 8 16.5635C8 20.4135 11.15 23.5635 15 23.5635C18.85 23.5635 22 20.4135 22 16.5635C22 12.7135 18.85 9.56348 15 9.56348ZM15 19.4801C13.3667 19.4801 12.0833 18.1968 12.0833 16.5635C12.0833 14.9301 13.3667 13.6468 15 13.6468C16.6333 13.6468 17.9167 14.9301 17.9167 16.5635C17.9167 18.1968 16.6333 19.4801 15 19.4801Z" fill="#76A9C1"/>
</svg>
