<svg width="21" height="20" viewBox="0 0 21 20" fill="none" xmlns="http://www.w3.org/2000/svg">
<path d="M11.2628 2.88732L14.6469 6.31071M4.36658 15.6227H16.9666M4.63822 12.1082L5.01653 9.44219C5.03707 9.26808 5.11653 9.10658 5.24136 8.98527L12.6579 1.46286C12.7533 1.36438 12.8721 1.29251 13.0029 1.2542C13.1337 1.21588 13.272 1.21241 13.4045 1.24413C14.0886 1.42889 14.7106 1.79791 15.2047 2.31209C15.716 2.81135 16.0833 3.44276 16.2667 4.1382C16.2953 4.27275 16.2905 4.41238 16.2527 4.54457C16.2149 4.67676 16.1454 4.79737 16.0504 4.89558L8.63462 12.418C8.50668 12.5377 8.34729 12.6172 8.17574 12.6468L5.53833 13.0298C5.41548 13.0467 5.29045 13.0343 5.17309 12.9938C5.05573 12.9533 4.94923 12.8858 4.86198 12.7964C4.77473 12.7071 4.70911 12.5984 4.67029 12.479C4.63146 12.3596 4.62048 12.2327 4.63822 12.1082Z" stroke="#B1B1B1" stroke-width="1.5" stroke-linecap="round" stroke-linejoin="round"/>
</svg>
