<svg width="13" height="13" viewBox="0 0 13 13" fill="none" xmlns="http://www.w3.org/2000/svg">
<path fill-rule="evenodd" clip-rule="evenodd" d="M2.95455 0.590909C2.95455 0.264559 3.2191 0 3.54545 0H9.45455C9.7809 0 10.0455 0.264559 10.0455 0.590909V3.93939H10.9318C11.4931 3.93939 12.023 4.17757 12.4075 4.58768C12.7908 4.99651 13 5.54329 13 6.10606V10.0455C13 10.3993 12.8686 10.7457 12.6238 11.0067C12.3779 11.2691 12.0358 11.4242 11.6705 11.4242H10.0455V12.4091C10.0455 12.7354 9.7809 13 9.45455 13H3.54545C3.2191 13 2.95455 12.7354 2.95455 12.4091V11.4242H1.32955C0.964172 11.4242 0.62212 11.2691 0.376161 11.0067C0.131412 10.7457 0 10.3993 0 10.0455V6.10606C0 5.54329 0.209232 4.99651 0.592502 4.58768C0.976982 4.17757 1.50691 3.93939 2.06818 3.93939H2.95455V0.590909ZM4.13636 3.93939H8.86364V1.18182H4.13636V3.93939ZM2.06818 5.12121C1.84586 5.12121 1.62429 5.21507 1.45468 5.39598C1.28387 5.57818 1.18182 5.833 1.18182 6.10606V10.0455C1.18182 10.1096 1.20605 10.164 1.23834 10.1984C1.26942 10.2316 1.30312 10.2424 1.32955 10.2424H2.95455V9.25758C2.95455 8.93123 3.2191 8.66667 3.54545 8.66667H9.45455C9.7809 8.66667 10.0455 8.93123 10.0455 9.25758V10.2424H11.6705C11.6969 10.2424 11.7306 10.2316 11.7617 10.1984C11.794 10.164 11.8182 10.1096 11.8182 10.0455V6.10606C11.8182 5.833 11.7161 5.57818 11.5453 5.39598C11.3757 5.21507 11.1541 5.12121 10.9318 5.12121H2.06818ZM4.13636 9.84849V11.8182H8.86364V9.84849H4.13636Z" fill="white"/>
<path d="M2.84704 7.09105C3.26239 7.09105 3.5991 6.75433 3.5991 6.33898C3.5991 5.92363 3.26239 5.58691 2.84704 5.58691C2.43168 5.58691 2.09497 5.92363 2.09497 6.33898C2.09497 6.75433 2.43168 7.09105 2.84704 7.09105Z" fill="white"/>
</svg>
