<svg width="14" height="14" viewBox="0 0 14 14" fill="none" xmlns="http://www.w3.org/2000/svg">
<g clip-path="url(#clip0_680_13334)">
<path d="M3.1143 3.46094H2.40783C2.03309 3.46094 1.6737 3.6098 1.40872 3.87478C1.14374 4.13976 0.994873 4.49915 0.994873 4.87389V11.2322C0.994873 11.6069 1.14374 11.9663 1.40872 12.2313C1.6737 12.4963 2.03309 12.6451 2.40783 12.6451H8.76612C9.14085 12.6451 9.50024 12.4963 9.76522 12.2313C10.0302 11.9663 10.1791 11.6069 10.1791 11.2322V10.5257" stroke="white" stroke-width="1.2" stroke-linecap="round" stroke-linejoin="round"/>
<path d="M9.47268 2.04779L11.5921 4.16722M12.5706 3.16756C12.8488 2.88932 13.0051 2.51194 13.0051 2.11844C13.0051 1.72495 12.8488 1.34757 12.5706 1.06932C12.2923 0.791081 11.915 0.634766 11.5215 0.634766C11.128 0.634766 10.7506 0.791081 10.4723 1.06932L4.52734 6.99313V9.11256H6.64677L12.5706 3.16756Z" stroke="white" stroke-width="1.2" stroke-linecap="round" stroke-linejoin="round"/>
</g>
<defs>
<clipPath id="clip0_680_13334">
<rect width="14" height="14" fill="white"/>
</clipPath>
</defs>
</svg>
