<svg width="13" height="13" viewBox="0 0 13 13" fill="none" xmlns="http://www.w3.org/2000/svg">
<path d="M10.5 5.2L9.56 4.277L5.16667 8.5605L3.44 6.8835L2.5 7.8L5.16667 10.4L10.5 5.2ZM11.1667 1.3H8.38C8.1 0.546 7.36667 0 6.5 0C5.63333 0 4.9 0.546 4.62 1.3H1.83333C1.74 1.3 1.65333 1.3065 1.56667 1.326C1.30667 1.378 1.07333 1.508 0.893333 1.6835C0.773333 1.8005 0.673333 1.9435 0.606667 2.0995C0.54 2.249 0.5 2.418 0.5 2.6V11.7C0.5 11.8755 0.54 12.051 0.606667 12.207C0.673333 12.363 0.773333 12.4995 0.893333 12.623C1.07333 12.7985 1.30667 12.9285 1.56667 12.9805C1.65333 12.9935 1.74 13 1.83333 13H11.1667C11.9 13 12.5 12.415 12.5 11.7V2.6C12.5 1.885 11.9 1.3 11.1667 1.3ZM6.5 1.1375C6.77333 1.1375 7 1.3585 7 1.625C7 1.8915 6.77333 2.1125 6.5 2.1125C6.22667 2.1125 6 1.8915 6 1.625C6 1.3585 6.22667 1.1375 6.5 1.1375ZM11.1667 11.7H1.83333V2.6H11.1667V11.7Z" fill="#3B4EBA"/>
</svg>
